# ff9mapkit -- THE LANTERN BEACON (Southern Ring quay marker)
# GENERATED by studies/overworld-topography/southern-ring/mint_quay_beacon.py -- do not hand-edit.
# Original procedural geometry (no game bytes). WORLD coords, Y up; ground plane y=3.20 (skirt buried 0.50u).
# UVs index the shared res(1_24)_objects atlas: stone shaft + warm lantern room.
o LanternBeacon
v 82.300000 2.700000 -436.200000
v 82.300000 2.700000 -433.900000
v 80.000000 2.700000 -433.900000
v 77.700000 2.700000 -433.900000
v 77.700000 2.700000 -436.200000
v 77.700000 2.700000 -438.500000
v 80.000000 2.700000 -438.500000
v 82.300000 2.700000 -438.500000
v 82.300000 3.200000 -436.200000
v 82.300000 3.200000 -433.900000
v 80.000000 3.200000 -433.900000
v 77.700000 3.200000 -433.900000
v 77.700000 3.200000 -436.200000
v 77.700000 3.200000 -438.500000
v 80.000000 3.200000 -438.500000
v 82.300000 3.200000 -438.500000
v 82.300000 6.100000 -436.200000
v 82.300000 6.100000 -433.900000
v 80.000000 6.100000 -433.900000
v 77.700000 6.100000 -433.900000
v 77.700000 6.100000 -436.200000
v 77.700000 6.100000 -438.500000
v 80.000000 6.100000 -438.500000
v 82.300000 6.100000 -438.500000
v 81.800000 6.100000 -436.200000
v 81.800000 6.100000 -434.400000
v 80.000000 6.100000 -434.400000
v 78.200000 6.100000 -434.400000
v 78.200000 6.100000 -436.200000
v 78.200000 6.100000 -438.000000
v 80.000000 6.100000 -438.000000
v 81.800000 6.100000 -438.000000
v 81.680000 7.130000 -436.200000
v 81.680000 7.130000 -434.520000
v 80.000000 7.130000 -434.520000
v 78.320000 7.130000 -434.520000
v 78.320000 7.130000 -436.200000
v 78.320000 7.130000 -437.880000
v 80.000000 7.130000 -437.880000
v 81.680000 7.130000 -437.880000
v 81.550000 8.150000 -436.200000
v 81.550000 8.150000 -434.650000
v 80.000000 8.150000 -434.650000
v 78.450000 8.150000 -434.650000
v 78.450000 8.150000 -436.200000
v 78.450000 8.150000 -437.750000
v 80.000000 8.150000 -437.750000
v 81.550000 8.150000 -437.750000
v 81.430000 9.180000 -436.200000
v 81.430000 9.180000 -434.770000
v 80.000000 9.180000 -434.770000
v 78.570000 9.180000 -434.770000
v 78.570000 9.180000 -436.200000
v 78.570000 9.180000 -437.630000
v 80.000000 9.180000 -437.630000
v 81.430000 9.180000 -437.630000
v 81.300000 10.200000 -436.200000
v 81.300000 10.200000 -434.900000
v 80.000000 10.200000 -434.900000
v 78.700000 10.200000 -434.900000
v 78.700000 10.200000 -436.200000
v 78.700000 10.200000 -437.500000
v 80.000000 10.200000 -437.500000
v 81.300000 10.200000 -437.500000
v 82.100000 10.200000 -436.200000
v 82.100000 10.200000 -434.100000
v 80.000000 10.200000 -434.100000
v 77.900000 10.200000 -434.100000
v 77.900000 10.200000 -436.200000
v 77.900000 10.200000 -438.300000
v 80.000000 10.200000 -438.300000
v 82.100000 10.200000 -438.300000
v 82.100000 11.050000 -436.200000
v 82.100000 11.050000 -434.100000
v 80.000000 11.050000 -434.100000
v 77.900000 11.050000 -434.100000
v 77.900000 11.050000 -436.200000
v 77.900000 11.050000 -438.300000
v 80.000000 11.050000 -438.300000
v 82.100000 11.050000 -438.300000
v 81.400000 11.050000 -436.200000
v 81.400000 11.050000 -434.800000
v 80.000000 11.050000 -434.800000
v 78.600000 11.050000 -434.800000
v 78.600000 11.050000 -436.200000
v 78.600000 11.050000 -437.600000
v 80.000000 11.050000 -437.600000
v 81.400000 11.050000 -437.600000
v 81.400000 12.050000 -436.200000
v 81.400000 12.050000 -434.800000
v 80.000000 12.050000 -434.800000
v 78.600000 12.050000 -434.800000
v 78.600000 12.050000 -436.200000
v 78.600000 12.050000 -437.600000
v 80.000000 12.050000 -437.600000
v 81.400000 12.050000 -437.600000
v 81.400000 13.050000 -436.200000
v 81.400000 13.050000 -434.800000
v 80.000000 13.050000 -434.800000
v 78.600000 13.050000 -434.800000
v 78.600000 13.050000 -436.200000
v 78.600000 13.050000 -437.600000
v 80.000000 13.050000 -437.600000
v 81.400000 13.050000 -437.600000
v 81.600000 13.050000 -436.200000
v 81.600000 13.050000 -434.600000
v 80.000000 13.050000 -434.600000
v 78.400000 13.050000 -434.600000
v 78.400000 13.050000 -436.200000
v 78.400000 13.050000 -437.800000
v 80.000000 13.050000 -437.800000
v 81.600000 13.050000 -437.800000
v 79.200000 3.650000 -438.500000
v 79.200000 5.700000 -438.500000
v 80.000000 5.700000 -438.500000
v 80.800000 5.700000 -438.500000
v 80.800000 3.650000 -438.500000
v 80.000000 3.650000 -438.500000
v 79.200000 3.650000 -438.150000
v 79.200000 5.700000 -438.150000
v 80.000000 5.700000 -438.150000
v 80.800000 5.700000 -438.150000
v 80.800000 3.650000 -438.150000
v 80.000000 3.650000 -438.150000
v 81.200000 2.700000 -438.480000
v 78.800000 2.700000 -438.480000
v 78.800000 2.700000 -438.950000
v 81.200000 2.700000 -438.950000
v 81.200000 3.400000 -438.480000
v 78.800000 3.400000 -438.480000
v 78.800000 3.400000 -438.950000
v 81.200000 3.400000 -438.950000
v 81.000000 2.700000 -438.480000
v 79.000000 2.700000 -438.480000
v 79.000000 2.700000 -438.720000
v 81.000000 2.700000 -438.720000
v 81.000000 3.620000 -438.480000
v 79.000000 3.620000 -438.480000
v 79.000000 3.620000 -438.720000
v 81.000000 3.620000 -438.720000
v 80.000000 13.800000 -436.200000
vt 0.004144 0.350844
vt 0.004144 0.381556
vt 0.034956 0.381556
vt 0.004144 0.350844
vt 0.034956 0.381556
vt 0.034956 0.350844
vt 0.004144 0.350844
vt 0.004144 0.381556
vt 0.034956 0.381556
vt 0.004144 0.350844
vt 0.034956 0.381556
vt 0.034956 0.350844
vt 0.004144 0.350844
vt 0.004144 0.381556
vt 0.034956 0.381556
vt 0.004144 0.350844
vt 0.034956 0.381556
vt 0.034956 0.350844
vt 0.004144 0.350844
vt 0.004144 0.381556
vt 0.034956 0.381556
vt 0.004144 0.350844
vt 0.034956 0.381556
vt 0.034956 0.350844
vt 0.004144 0.350844
vt 0.004144 0.381556
vt 0.034956 0.381556
vt 0.004144 0.350844
vt 0.034956 0.381556
vt 0.034956 0.350844
vt 0.004144 0.350844
vt 0.004144 0.381556
vt 0.034956 0.381556
vt 0.004144 0.350844
vt 0.034956 0.381556
vt 0.034956 0.350844
vt 0.004144 0.350844
vt 0.004144 0.381556
vt 0.034956 0.381556
vt 0.004144 0.350844
vt 0.034956 0.381556
vt 0.034956 0.350844
vt 0.004144 0.350844
vt 0.004144 0.381556
vt 0.034956 0.381556
vt 0.004144 0.350844
vt 0.034956 0.381556
vt 0.034956 0.350844
vt 0.004144 0.350844
vt 0.004144 0.381556
vt 0.034956 0.381556
vt 0.004144 0.350844
vt 0.034956 0.381556
vt 0.034956 0.350844
vt 0.004144 0.350844
vt 0.004144 0.381556
vt 0.034956 0.381556
vt 0.004144 0.350844
vt 0.034956 0.381556
vt 0.034956 0.350844
vt 0.004144 0.350844
vt 0.004144 0.381556
vt 0.034956 0.381556
vt 0.004144 0.350844
vt 0.034956 0.381556
vt 0.034956 0.350844
vt 0.004144 0.350844
vt 0.004144 0.381556
vt 0.034956 0.381556
vt 0.004144 0.350844
vt 0.034956 0.381556
vt 0.034956 0.350844
vt 0.004144 0.350844
vt 0.004144 0.381556
vt 0.034956 0.381556
vt 0.004144 0.350844
vt 0.034956 0.381556
vt 0.034956 0.350844
vt 0.004144 0.350844
vt 0.004144 0.381556
vt 0.034956 0.381556
vt 0.004144 0.350844
vt 0.034956 0.381556
vt 0.034956 0.350844
vt 0.004144 0.350844
vt 0.004144 0.381556
vt 0.034956 0.381556
vt 0.004144 0.350844
vt 0.034956 0.381556
vt 0.034956 0.350844
vt 0.004144 0.350844
vt 0.004144 0.381556
vt 0.034956 0.381556
vt 0.004144 0.350844
vt 0.034956 0.381556
vt 0.034956 0.350844
vt 0.004144 0.350844
vt 0.004144 0.381556
vt 0.034956 0.381556
vt 0.004144 0.350844
vt 0.034956 0.381556
vt 0.034956 0.350844
vt 0.004144 0.350844
vt 0.004144 0.381556
vt 0.034956 0.381556
vt 0.004144 0.350844
vt 0.034956 0.381556
vt 0.034956 0.350844
vt 0.004144 0.350844
vt 0.004144 0.381556
vt 0.034956 0.381556
vt 0.004144 0.350844
vt 0.034956 0.381556
vt 0.034956 0.350844
vt 0.004144 0.350844
vt 0.004144 0.381556
vt 0.034956 0.381556
vt 0.004144 0.350844
vt 0.034956 0.381556
vt 0.034956 0.350844
vt 0.004144 0.350844
vt 0.004144 0.381556
vt 0.034956 0.381556
vt 0.004144 0.350844
vt 0.034956 0.381556
vt 0.034956 0.350844
vt 0.004144 0.350844
vt 0.004144 0.381556
vt 0.034956 0.381556
vt 0.004144 0.350844
vt 0.034956 0.381556
vt 0.034956 0.350844
vt 0.004144 0.350844
vt 0.004144 0.381556
vt 0.034956 0.381556
vt 0.004144 0.350844
vt 0.034956 0.381556
vt 0.034956 0.350844
vt 0.004144 0.350844
vt 0.004144 0.381556
vt 0.034956 0.381556
vt 0.004144 0.350844
vt 0.034956 0.381556
vt 0.034956 0.350844
vt 0.004144 0.350844
vt 0.004144 0.381556
vt 0.034956 0.381556
vt 0.004144 0.350844
vt 0.034956 0.381556
vt 0.034956 0.350844
vt 0.004144 0.350844
vt 0.004144 0.381556
vt 0.034956 0.381556
vt 0.004144 0.350844
vt 0.034956 0.381556
vt 0.034956 0.350844
vt 0.004144 0.350844
vt 0.004144 0.381556
vt 0.034956 0.381556
vt 0.004144 0.350844
vt 0.034956 0.381556
vt 0.034956 0.350844
vt 0.004144 0.350844
vt 0.004144 0.381556
vt 0.034956 0.381556
vt 0.004144 0.350844
vt 0.034956 0.381556
vt 0.034956 0.350844
vt 0.004144 0.350844
vt 0.004144 0.381556
vt 0.034956 0.381556
vt 0.004144 0.350844
vt 0.034956 0.381556
vt 0.034956 0.350844
vt 0.004144 0.350844
vt 0.004144 0.381556
vt 0.034956 0.381556
vt 0.004144 0.350844
vt 0.034956 0.381556
vt 0.034956 0.350844
vt 0.004144 0.350844
vt 0.004144 0.381556
vt 0.034956 0.381556
vt 0.004144 0.350844
vt 0.034956 0.381556
vt 0.034956 0.350844
vt 0.004144 0.350844
vt 0.004144 0.381556
vt 0.034956 0.381556
vt 0.004144 0.350844
vt 0.034956 0.381556
vt 0.034956 0.350844
vt 0.004144 0.350844
vt 0.004144 0.381556
vt 0.034956 0.381556
vt 0.004144 0.350844
vt 0.034956 0.381556
vt 0.034956 0.350844
vt 0.004144 0.350844
vt 0.004144 0.381556
vt 0.034956 0.381556
vt 0.004144 0.350844
vt 0.034956 0.381556
vt 0.034956 0.350844
vt 0.004144 0.350844
vt 0.004144 0.381556
vt 0.034956 0.381556
vt 0.004144 0.350844
vt 0.034956 0.381556
vt 0.034956 0.350844
vt 0.004144 0.350844
vt 0.004144 0.381556
vt 0.034956 0.381556
vt 0.004144 0.350844
vt 0.034956 0.381556
vt 0.034956 0.350844
vt 0.004144 0.350844
vt 0.004144 0.381556
vt 0.034956 0.381556
vt 0.004144 0.350844
vt 0.034956 0.381556
vt 0.034956 0.350844
vt 0.004144 0.350844
vt 0.004144 0.381556
vt 0.034956 0.381556
vt 0.004144 0.350844
vt 0.034956 0.381556
vt 0.034956 0.350844
vt 0.004144 0.350844
vt 0.004144 0.381556
vt 0.034956 0.381556
vt 0.004144 0.350844
vt 0.034956 0.381556
vt 0.034956 0.350844
vt 0.004144 0.350844
vt 0.004144 0.381556
vt 0.034956 0.381556
vt 0.004144 0.350844
vt 0.034956 0.381556
vt 0.034956 0.350844
vt 0.004144 0.350844
vt 0.004144 0.381556
vt 0.034956 0.381556
vt 0.004144 0.350844
vt 0.034956 0.381556
vt 0.034956 0.350844
vt 0.004144 0.350844
vt 0.004144 0.381556
vt 0.034956 0.381556
vt 0.004144 0.350844
vt 0.034956 0.381556
vt 0.034956 0.350844
vt 0.004144 0.350844
vt 0.004144 0.381556
vt 0.034956 0.381556
vt 0.004144 0.350844
vt 0.034956 0.381556
vt 0.034956 0.350844
vt 0.004144 0.350844
vt 0.004144 0.381556
vt 0.034956 0.381556
vt 0.004144 0.350844
vt 0.034956 0.381556
vt 0.034956 0.350844
vt 0.004144 0.350844
vt 0.004144 0.381556
vt 0.034956 0.381556
vt 0.004144 0.350844
vt 0.034956 0.381556
vt 0.034956 0.350844
vt 0.004144 0.350844
vt 0.004144 0.381556
vt 0.034956 0.381556
vt 0.004144 0.350844
vt 0.034956 0.381556
vt 0.034956 0.350844
vt 0.004144 0.350844
vt 0.004144 0.381556
vt 0.034956 0.381556
vt 0.004144 0.350844
vt 0.034956 0.381556
vt 0.034956 0.350844
vt 0.004144 0.350844
vt 0.004144 0.381556
vt 0.034956 0.381556
vt 0.004144 0.350844
vt 0.034956 0.381556
vt 0.034956 0.350844
vt 0.004144 0.350844
vt 0.004144 0.381556
vt 0.034956 0.381556
vt 0.004144 0.350844
vt 0.034956 0.381556
vt 0.034956 0.350844
vt 0.004144 0.350844
vt 0.004144 0.381556
vt 0.034956 0.381556
vt 0.004144 0.350844
vt 0.034956 0.381556
vt 0.034956 0.350844
vt 0.004144 0.350844
vt 0.004144 0.381556
vt 0.034956 0.381556
vt 0.004144 0.350844
vt 0.034956 0.381556
vt 0.034956 0.350844
vt 0.004144 0.350844
vt 0.004144 0.381556
vt 0.034956 0.381556
vt 0.004144 0.350844
vt 0.034956 0.381556
vt 0.034956 0.350844
vt 0.004144 0.350844
vt 0.004144 0.381556
vt 0.034956 0.381556
vt 0.004144 0.350844
vt 0.034956 0.381556
vt 0.034956 0.350844
vt 0.004144 0.350844
vt 0.004144 0.381556
vt 0.034956 0.381556
vt 0.004144 0.350844
vt 0.034956 0.381556
vt 0.034956 0.350844
vt 0.004144 0.350844
vt 0.004144 0.381556
vt 0.034956 0.381556
vt 0.004144 0.350844
vt 0.034956 0.381556
vt 0.034956 0.350844
vt 0.004144 0.350844
vt 0.004144 0.381556
vt 0.034956 0.381556
vt 0.004144 0.350844
vt 0.034956 0.381556
vt 0.034956 0.350844
vt 0.004144 0.350844
vt 0.004144 0.381556
vt 0.034956 0.381556
vt 0.004144 0.350844
vt 0.034956 0.381556
vt 0.034956 0.350844
vt 0.004144 0.350844
vt 0.004144 0.381556
vt 0.034956 0.381556
vt 0.004144 0.350844
vt 0.034956 0.381556
vt 0.034956 0.350844
vt 0.004144 0.350844
vt 0.004144 0.381556
vt 0.034956 0.381556
vt 0.004144 0.350844
vt 0.034956 0.381556
vt 0.034956 0.350844
vt 0.004144 0.350844
vt 0.004144 0.381556
vt 0.034956 0.381556
vt 0.004144 0.350844
vt 0.034956 0.381556
vt 0.034956 0.350844
vt 0.004144 0.350844
vt 0.004144 0.381556
vt 0.034956 0.381556
vt 0.004144 0.350844
vt 0.034956 0.381556
vt 0.034956 0.350844
vt 0.004144 0.350844
vt 0.004144 0.381556
vt 0.034956 0.381556
vt 0.004144 0.350844
vt 0.034956 0.381556
vt 0.034956 0.350844
vt 0.004144 0.350844
vt 0.004144 0.381556
vt 0.034956 0.381556
vt 0.004144 0.350844
vt 0.034956 0.381556
vt 0.034956 0.350844
vt 0.004144 0.350844
vt 0.004144 0.381556
vt 0.034956 0.381556
vt 0.004144 0.350844
vt 0.034956 0.381556
vt 0.034956 0.350844
vt 0.004144 0.350844
vt 0.004144 0.381556
vt 0.034956 0.381556
vt 0.004144 0.350844
vt 0.034956 0.381556
vt 0.034956 0.350844
vt 0.004144 0.350844
vt 0.004144 0.381556
vt 0.034956 0.381556
vt 0.004144 0.350844
vt 0.034956 0.381556
vt 0.034956 0.350844
vt 0.004144 0.350844
vt 0.004144 0.381556
vt 0.034956 0.381556
vt 0.004144 0.350844
vt 0.034956 0.381556
vt 0.034956 0.350844
vt 0.004144 0.350844
vt 0.004144 0.381556
vt 0.034956 0.381556
vt 0.004144 0.350844
vt 0.034956 0.381556
vt 0.034956 0.350844
vt 0.004144 0.350844
vt 0.004144 0.381556
vt 0.034956 0.381556
vt 0.004144 0.350844
vt 0.034956 0.381556
vt 0.034956 0.350844
vt 0.004144 0.350844
vt 0.004144 0.381556
vt 0.034956 0.381556
vt 0.004144 0.350844
vt 0.034956 0.381556
vt 0.034956 0.350844
vt 0.004144 0.350844
vt 0.004144 0.381556
vt 0.034956 0.381556
vt 0.004144 0.350844
vt 0.034956 0.381556
vt 0.034956 0.350844
vt 0.004144 0.350844
vt 0.004144 0.381556
vt 0.034956 0.381556
vt 0.004144 0.350844
vt 0.034956 0.381556
vt 0.034956 0.350844
vt 0.004144 0.350844
vt 0.004144 0.381556
vt 0.034956 0.381556
vt 0.004144 0.350844
vt 0.034956 0.381556
vt 0.034956 0.350844
vt 0.004144 0.350844
vt 0.004144 0.381556
vt 0.034956 0.381556
vt 0.004144 0.350844
vt 0.034956 0.381556
vt 0.034956 0.350844
vt 0.004144 0.350844
vt 0.004144 0.381556
vt 0.034956 0.381556
vt 0.004144 0.350844
vt 0.034956 0.381556
vt 0.034956 0.350844
vt 0.004144 0.350844
vt 0.004144 0.381556
vt 0.034956 0.381556
vt 0.004144 0.350844
vt 0.034956 0.381556
vt 0.034956 0.350844
vt 0.004144 0.350844
vt 0.004144 0.381556
vt 0.034956 0.381556
vt 0.004144 0.350844
vt 0.034956 0.381556
vt 0.034956 0.350844
vt 0.004144 0.350844
vt 0.004144 0.381556
vt 0.034956 0.381556
vt 0.004144 0.350844
vt 0.034956 0.381556
vt 0.034956 0.350844
vt 0.334244 0.435744
vt 0.334244 0.456756
vt 0.361056 0.456756
vt 0.334244 0.435744
vt 0.361056 0.456756
vt 0.361056 0.435744
vt 0.334244 0.435744
vt 0.334244 0.456756
vt 0.361056 0.456756
vt 0.334244 0.435744
vt 0.361056 0.456756
vt 0.361056 0.435744
vt 0.334244 0.435744
vt 0.334244 0.456756
vt 0.361056 0.456756
vt 0.334244 0.435744
vt 0.361056 0.456756
vt 0.361056 0.435744
vt 0.334244 0.435744
vt 0.334244 0.456756
vt 0.361056 0.456756
vt 0.334244 0.435744
vt 0.361056 0.456756
vt 0.361056 0.435744
vt 0.334244 0.435744
vt 0.334244 0.456756
vt 0.361056 0.456756
vt 0.334244 0.435744
vt 0.361056 0.456756
vt 0.361056 0.435744
vt 0.334244 0.435744
vt 0.334244 0.456756
vt 0.361056 0.456756
vt 0.334244 0.435744
vt 0.361056 0.456756
vt 0.361056 0.435744
vt 0.334244 0.435744
vt 0.334244 0.456756
vt 0.361056 0.456756
vt 0.334244 0.435744
vt 0.361056 0.456756
vt 0.361056 0.435744
vt 0.334244 0.435744
vt 0.334244 0.456756
vt 0.361056 0.456756
vt 0.334244 0.435744
vt 0.361056 0.456756
vt 0.361056 0.435744
vt 0.334244 0.435744
vt 0.334244 0.456756
vt 0.361056 0.456756
vt 0.334244 0.435744
vt 0.361056 0.456756
vt 0.361056 0.435744
vt 0.334244 0.435744
vt 0.334244 0.456756
vt 0.361056 0.456756
vt 0.334244 0.435744
vt 0.361056 0.456756
vt 0.361056 0.435744
vt 0.334244 0.435744
vt 0.334244 0.456756
vt 0.361056 0.456756
vt 0.334244 0.435744
vt 0.361056 0.456756
vt 0.361056 0.435744
vt 0.334244 0.435744
vt 0.334244 0.456756
vt 0.361056 0.456756
vt 0.334244 0.435744
vt 0.361056 0.456756
vt 0.361056 0.435744
vt 0.334244 0.435744
vt 0.334244 0.456756
vt 0.361056 0.456756
vt 0.334244 0.435744
vt 0.361056 0.456756
vt 0.361056 0.435744
vt 0.334244 0.435744
vt 0.334244 0.456756
vt 0.361056 0.456756
vt 0.334244 0.435744
vt 0.361056 0.456756
vt 0.361056 0.435744
vt 0.334244 0.435744
vt 0.334244 0.456756
vt 0.361056 0.456756
vt 0.334244 0.435744
vt 0.361056 0.456756
vt 0.361056 0.435744
vt 0.334244 0.435744
vt 0.334244 0.456756
vt 0.361056 0.456756
vt 0.334244 0.435744
vt 0.361056 0.456756
vt 0.361056 0.435744
vt 0.004144 0.350844
vt 0.004144 0.381556
vt 0.034956 0.381556
vt 0.004144 0.350844
vt 0.034956 0.381556
vt 0.034956 0.350844
vt 0.004144 0.350844
vt 0.004144 0.381556
vt 0.034956 0.381556
vt 0.004144 0.350844
vt 0.034956 0.381556
vt 0.034956 0.350844
vt 0.004144 0.350844
vt 0.004144 0.381556
vt 0.034956 0.381556
vt 0.004144 0.350844
vt 0.034956 0.381556
vt 0.034956 0.350844
vt 0.004144 0.350844
vt 0.004144 0.381556
vt 0.034956 0.381556
vt 0.004144 0.350844
vt 0.034956 0.381556
vt 0.034956 0.350844
vt 0.004144 0.350844
vt 0.004144 0.381556
vt 0.034956 0.381556
vt 0.004144 0.350844
vt 0.034956 0.381556
vt 0.034956 0.350844
vt 0.004144 0.350844
vt 0.004144 0.381556
vt 0.034956 0.381556
vt 0.004144 0.350844
vt 0.034956 0.381556
vt 0.034956 0.350844
vt 0.004144 0.350844
vt 0.004144 0.381556
vt 0.034956 0.381556
vt 0.004144 0.350844
vt 0.034956 0.381556
vt 0.034956 0.350844
vt 0.004144 0.350844
vt 0.004144 0.381556
vt 0.034956 0.381556
vt 0.004144 0.350844
vt 0.034956 0.381556
vt 0.034956 0.350844
vt 0.004144 0.350844
vt 0.004144 0.381556
vt 0.034956 0.381556
vt 0.004144 0.350844
vt 0.034956 0.381556
vt 0.034956 0.350844
vt 0.004144 0.350844
vt 0.004144 0.381556
vt 0.034956 0.381556
vt 0.004144 0.350844
vt 0.034956 0.381556
vt 0.034956 0.350844
vt 0.004144 0.350844
vt 0.004144 0.381556
vt 0.034956 0.381556
vt 0.004144 0.350844
vt 0.034956 0.381556
vt 0.034956 0.350844
vt 0.004144 0.350844
vt 0.004144 0.381556
vt 0.034956 0.381556
vt 0.004144 0.350844
vt 0.034956 0.381556
vt 0.034956 0.350844
vt 0.004144 0.350844
vt 0.004144 0.381556
vt 0.034956 0.381556
vt 0.004144 0.350844
vt 0.034956 0.381556
vt 0.034956 0.350844
vt 0.004144 0.350844
vt 0.004144 0.381556
vt 0.034956 0.381556
vt 0.004144 0.350844
vt 0.034956 0.381556
vt 0.034956 0.350844
vt 0.336144 0.777544
vt 0.336144 0.792756
vt 0.348356 0.792756
vt 0.336144 0.777544
vt 0.348356 0.792756
vt 0.348356 0.777544
vt 0.336144 0.777544
vt 0.336144 0.792756
vt 0.348356 0.792756
vt 0.336144 0.777544
vt 0.348356 0.792756
vt 0.348356 0.777544
vt 0.336144 0.777544
vt 0.336144 0.792756
vt 0.348356 0.792756
vt 0.336144 0.777544
vt 0.348356 0.792756
vt 0.348356 0.777544
vt 0.336144 0.777544
vt 0.336144 0.792756
vt 0.348356 0.792756
vt 0.336144 0.777544
vt 0.348356 0.792756
vt 0.348356 0.777544
vt 0.336144 0.777544
vt 0.336144 0.792756
vt 0.348356 0.792756
vt 0.336144 0.777544
vt 0.348356 0.792756
vt 0.348356 0.777544
vt 0.336144 0.777544
vt 0.336144 0.792756
vt 0.348356 0.792756
vt 0.336144 0.777544
vt 0.348356 0.792756
vt 0.348356 0.777544
vt 0.336144 0.777544
vt 0.336144 0.792756
vt 0.348356 0.792756
vt 0.336144 0.777544
vt 0.348356 0.792756
vt 0.348356 0.777544
vt 0.336144 0.777544
vt 0.336144 0.792756
vt 0.348356 0.792756
vt 0.336144 0.777544
vt 0.348356 0.792756
vt 0.348356 0.777544
vt 0.004144 0.350844
vt 0.004144 0.381556
vt 0.034956 0.381556
vt 0.004144 0.350844
vt 0.034956 0.381556
vt 0.034956 0.350844
vt 0.004144 0.350844
vt 0.004144 0.381556
vt 0.034956 0.381556
vt 0.004144 0.350844
vt 0.034956 0.381556
vt 0.034956 0.350844
vt 0.004144 0.350844
vt 0.004144 0.381556
vt 0.034956 0.381556
vt 0.004144 0.350844
vt 0.034956 0.381556
vt 0.034956 0.350844
vt 0.004144 0.350844
vt 0.004144 0.381556
vt 0.034956 0.381556
vt 0.004144 0.350844
vt 0.034956 0.381556
vt 0.034956 0.350844
vt 0.004144 0.350844
vt 0.034956 0.350844
vt 0.034956 0.381556
vt 0.004144 0.350844
vt 0.034956 0.381556
vt 0.034956 0.350844
vt 0.004144 0.350844
vt 0.034956 0.350844
vt 0.034956 0.381556
vt 0.004144 0.350844
vt 0.034956 0.381556
vt 0.034956 0.350844
vt 0.004144 0.350844
vt 0.004144 0.381556
vt 0.034956 0.381556
vt 0.004144 0.350844
vt 0.034956 0.381556
vt 0.034956 0.350844
vt 0.004144 0.350844
vt 0.004144 0.381556
vt 0.034956 0.381556
vt 0.004144 0.350844
vt 0.034956 0.381556
vt 0.034956 0.350844
vt 0.004144 0.350844
vt 0.004144 0.381556
vt 0.034956 0.381556
vt 0.004144 0.350844
vt 0.034956 0.381556
vt 0.034956 0.350844
vt 0.004144 0.350844
vt 0.004144 0.381556
vt 0.034956 0.381556
vt 0.004144 0.350844
vt 0.034956 0.381556
vt 0.034956 0.350844
vt 0.004144 0.350844
vt 0.034956 0.350844
vt 0.034956 0.381556
vt 0.004144 0.350844
vt 0.034956 0.381556
vt 0.034956 0.350844
vt 0.004144 0.350844
vt 0.034956 0.350844
vt 0.034956 0.381556
vt 0.004144 0.350844
vt 0.034956 0.381556
vt 0.034956 0.350844
vt 0.004144 0.350844
vt 0.019550 0.381556
vt 0.034956 0.350844
vt 0.004144 0.350844
vt 0.019550 0.381556
vt 0.034956 0.350844
vt 0.004144 0.350844
vt 0.019550 0.381556
vt 0.034956 0.350844
vt 0.004144 0.350844
vt 0.019550 0.381556
vt 0.034956 0.350844
vt 0.004144 0.350844
vt 0.019550 0.381556
vt 0.034956 0.350844
vt 0.004144 0.350844
vt 0.019550 0.381556
vt 0.034956 0.350844
vt 0.004144 0.350844
vt 0.019550 0.381556
vt 0.034956 0.350844
vt 0.004144 0.350844
vt 0.019550 0.381556
vt 0.034956 0.350844
vt 0.004144 0.350844
vt 0.034956 0.350844
vt 0.034956 0.381556
vt 0.004144 0.350844
vt 0.034956 0.350844
vt 0.034956 0.381556
vt 0.004144 0.350844
vt 0.034956 0.350844
vt 0.034956 0.381556
vt 0.004144 0.350844
vt 0.034956 0.350844
vt 0.034956 0.381556
vt 0.004144 0.350844
vt 0.034956 0.350844
vt 0.034956 0.381556
vt 0.004144 0.350844
vt 0.034956 0.350844
vt 0.034956 0.381556
vn 1.000000 0.000000 0.000000
vn 1.000000 0.000000 0.000000
vn 0.000000 -0.000000 1.000000
vn 0.000000 0.000000 1.000000
vn 0.000000 -0.000000 1.000000
vn 0.000000 0.000000 1.000000
vn -1.000000 0.000000 0.000000
vn -1.000000 0.000000 0.000000
vn -1.000000 0.000000 0.000000
vn -1.000000 0.000000 0.000000
vn 0.000000 0.000000 -1.000000
vn 0.000000 0.000000 -1.000000
vn 0.000000 0.000000 -1.000000
vn 0.000000 0.000000 -1.000000
vn 1.000000 0.000000 0.000000
vn 1.000000 0.000000 0.000000
vn 1.000000 0.000000 0.000000
vn 1.000000 0.000000 0.000000
vn 0.000000 -0.000000 1.000000
vn 0.000000 0.000000 1.000000
vn 0.000000 -0.000000 1.000000
vn 0.000000 0.000000 1.000000
vn -1.000000 0.000000 0.000000
vn -1.000000 0.000000 0.000000
vn -1.000000 0.000000 0.000000
vn -1.000000 0.000000 0.000000
vn 1.000000 0.000000 0.000000
vn 1.000000 0.000000 0.000000
vn 0.000000 1.000000 0.000000
vn 0.000000 1.000000 -0.000000
vn 0.000000 1.000000 0.000000
vn 0.000000 1.000000 0.000000
vn 0.000000 1.000000 0.000000
vn 0.000000 1.000000 0.000000
vn 0.000000 1.000000 0.000000
vn 0.000000 1.000000 0.000000
vn -0.000000 1.000000 0.000000
vn 0.000000 1.000000 0.000000
vn 0.000000 1.000000 0.000000
vn 0.000000 1.000000 0.000000
vn 0.000000 1.000000 0.000000
vn 0.000000 1.000000 0.000000
vn 0.000000 1.000000 0.000000
vn 0.000000 1.000000 -0.000000
vn 0.993282 0.115722 0.000000
vn 0.993282 0.115722 -0.000000
vn 0.000000 0.115722 0.993282
vn 0.000000 0.115722 0.993282
vn 0.000000 0.115722 0.993282
vn 0.000000 0.115722 0.993282
vn -0.993282 0.115722 0.000000
vn -0.993282 0.115722 0.000000
vn -0.993282 0.115722 0.000000
vn -0.993282 0.115722 0.000000
vn 0.000000 0.115722 -0.993282
vn 0.000000 0.115722 -0.993282
vn 0.000000 0.115722 -0.993282
vn 0.000000 0.115722 -0.993282
vn 0.993282 0.115722 -0.000000
vn 0.993282 0.115722 -0.000000
vn 0.991976 0.126428 0.000000
vn 0.991976 0.126428 -0.000000
vn 0.000000 0.126428 0.991976
vn 0.000000 0.126428 0.991976
vn 0.000000 0.126428 0.991976
vn 0.000000 0.126428 0.991976
vn -0.991976 0.126428 0.000000
vn -0.991976 0.126428 0.000000
vn -0.991976 0.126428 0.000000
vn -0.991976 0.126428 0.000000
vn 0.000000 0.126428 -0.991976
vn 0.000000 0.126428 -0.991976
vn 0.000000 0.126428 -0.991976
vn 0.000000 0.126428 -0.991976
vn 0.991976 0.126428 0.000000
vn 0.991976 0.126428 -0.000000
vn 0.993282 0.115722 0.000000
vn 0.993282 0.115722 -0.000000
vn 0.000000 0.115722 0.993282
vn 0.000000 0.115722 0.993282
vn 0.000000 0.115722 0.993282
vn 0.000000 0.115722 0.993282
vn -0.993282 0.115722 0.000000
vn -0.993282 0.115722 0.000000
vn -0.993282 0.115722 0.000000
vn -0.993282 0.115722 0.000000
vn 0.000000 0.115722 -0.993282
vn 0.000000 0.115722 -0.993282
vn 0.000000 0.115722 -0.993282
vn 0.000000 0.115722 -0.993282
vn 0.993282 0.115722 -0.000000
vn 0.993282 0.115722 -0.000000
vn 0.991976 0.126428 0.000000
vn 0.991976 0.126428 -0.000000
vn 0.000000 0.126428 0.991976
vn 0.000000 0.126428 0.991976
vn 0.000000 0.126428 0.991976
vn 0.000000 0.126428 0.991976
vn -0.991976 0.126428 0.000000
vn -0.991976 0.126428 0.000000
vn -0.991976 0.126428 0.000000
vn -0.991976 0.126428 0.000000
vn 0.000000 0.126428 -0.991976
vn 0.000000 0.126428 -0.991976
vn 0.000000 0.126428 -0.991976
vn 0.000000 0.126428 -0.991976
vn 0.991976 0.126428 0.000000
vn 0.991976 0.126428 -0.000000
vn 0.000000 -1.000000 0.000000
vn 0.000000 -1.000000 0.000000
vn 0.000000 -1.000000 0.000000
vn 0.000000 -1.000000 0.000000
vn 0.000000 -1.000000 0.000000
vn 0.000000 -1.000000 0.000000
vn -0.000000 -1.000000 0.000000
vn 0.000000 -1.000000 -0.000000
vn -0.000000 -1.000000 0.000000
vn 0.000000 -1.000000 -0.000000
vn 0.000000 -1.000000 -0.000000
vn 0.000000 -1.000000 0.000000
vn 0.000000 -1.000000 0.000000
vn 0.000000 -1.000000 0.000000
vn 0.000000 -1.000000 0.000000
vn 0.000000 -1.000000 0.000000
vn 1.000000 0.000000 0.000000
vn 1.000000 0.000000 0.000000
vn 0.000000 -0.000000 1.000000
vn 0.000000 0.000000 1.000000
vn 0.000000 -0.000000 1.000000
vn 0.000000 0.000000 1.000000
vn -1.000000 0.000000 0.000000
vn -1.000000 0.000000 0.000000
vn -1.000000 0.000000 0.000000
vn -1.000000 0.000000 0.000000
vn 0.000000 0.000000 -1.000000
vn 0.000000 0.000000 -1.000000
vn 0.000000 0.000000 -1.000000
vn 0.000000 0.000000 -1.000000
vn 1.000000 0.000000 0.000000
vn 1.000000 0.000000 0.000000
vn 0.000000 1.000000 0.000000
vn 0.000000 1.000000 -0.000000
vn 0.000000 1.000000 0.000000
vn 0.000000 1.000000 0.000000
vn 0.000000 1.000000 0.000000
vn 0.000000 1.000000 0.000000
vn 0.000000 1.000000 0.000000
vn 0.000000 1.000000 0.000000
vn -0.000000 1.000000 0.000000
vn 0.000000 1.000000 0.000000
vn 0.000000 1.000000 0.000000
vn 0.000000 1.000000 0.000000
vn 0.000000 1.000000 0.000000
vn 0.000000 1.000000 0.000000
vn 0.000000 1.000000 0.000000
vn 0.000000 1.000000 -0.000000
vn 1.000000 0.000000 0.000000
vn 1.000000 0.000000 0.000000
vn 0.000000 -0.000000 1.000000
vn 0.000000 0.000000 1.000000
vn 0.000000 -0.000000 1.000000
vn 0.000000 0.000000 1.000000
vn -1.000000 0.000000 0.000000
vn -1.000000 0.000000 0.000000
vn -1.000000 0.000000 0.000000
vn -1.000000 0.000000 0.000000
vn 0.000000 0.000000 -1.000000
vn 0.000000 0.000000 -1.000000
vn 0.000000 0.000000 -1.000000
vn 0.000000 0.000000 -1.000000
vn 1.000000 0.000000 0.000000
vn 1.000000 0.000000 0.000000
vn 1.000000 0.000000 0.000000
vn 1.000000 0.000000 0.000000
vn 0.000000 -0.000000 1.000000
vn 0.000000 0.000000 1.000000
vn 0.000000 -0.000000 1.000000
vn 0.000000 0.000000 1.000000
vn -1.000000 0.000000 0.000000
vn -1.000000 0.000000 0.000000
vn -1.000000 0.000000 0.000000
vn -1.000000 0.000000 0.000000
vn 0.000000 0.000000 -1.000000
vn 0.000000 0.000000 -1.000000
vn 0.000000 0.000000 -1.000000
vn 0.000000 0.000000 -1.000000
vn 1.000000 0.000000 0.000000
vn 1.000000 0.000000 0.000000
vn 0.000000 -1.000000 0.000000
vn 0.000000 -1.000000 0.000000
vn 0.000000 -1.000000 0.000000
vn 0.000000 -1.000000 0.000000
vn 0.000000 -1.000000 0.000000
vn 0.000000 -1.000000 0.000000
vn -0.000000 -1.000000 0.000000
vn 0.000000 -1.000000 -0.000000
vn -0.000000 -1.000000 0.000000
vn 0.000000 -1.000000 -0.000000
vn 0.000000 -1.000000 -0.000000
vn 0.000000 -1.000000 0.000000
vn 0.000000 -1.000000 0.000000
vn 0.000000 -1.000000 0.000000
vn 0.000000 -1.000000 0.000000
vn 0.000000 -1.000000 0.000000
vn 0.000000 0.000000 -1.000000
vn 0.000000 0.000000 -1.000000
vn 0.000000 0.000000 -1.000000
vn 0.000000 0.000000 -1.000000
vn 0.000000 0.000000 -1.000000
vn 0.000000 0.000000 -1.000000
vn 0.000000 -0.000000 -1.000000
vn 0.000000 0.000000 -1.000000
vn 0.000000 0.000000 -1.000000
vn 0.000000 0.000000 -1.000000
vn 0.000000 0.000000 -1.000000
vn 0.000000 0.000000 -1.000000
vn 1.000000 0.000000 0.000000
vn 1.000000 0.000000 0.000000
vn 0.000000 -1.000000 0.000000
vn 0.000000 -1.000000 0.000000
vn 0.000000 -1.000000 0.000000
vn 0.000000 -1.000000 0.000000
vn -1.000000 0.000000 0.000000
vn -1.000000 0.000000 0.000000
vn 0.000000 1.000000 0.000000
vn 0.000000 1.000000 -0.000000
vn 0.000000 1.000000 0.000000
vn 0.000000 1.000000 -0.000000
vn 0.000000 0.000000 -1.000000
vn 0.000000 0.000000 -1.000000
vn 0.000000 0.000000 -1.000000
vn 0.000000 0.000000 -1.000000
vn 0.000000 -0.000000 1.000000
vn 0.000000 0.000000 1.000000
vn -1.000000 0.000000 0.000000
vn -1.000000 0.000000 0.000000
vn 0.000000 0.000000 -1.000000
vn 0.000000 0.000000 -1.000000
vn 1.000000 0.000000 0.000000
vn 1.000000 0.000000 0.000000
vn -0.000000 -1.000000 0.000000
vn 0.000000 1.000000 0.000000
vn 0.000000 -1.000000 -0.000000
vn 0.000000 1.000000 0.000000
vn 0.000000 -0.000000 1.000000
vn 0.000000 0.000000 1.000000
vn -1.000000 0.000000 0.000000
vn -1.000000 0.000000 0.000000
vn 0.000000 0.000000 -1.000000
vn 0.000000 0.000000 -1.000000
vn 1.000000 0.000000 0.000000
vn 1.000000 0.000000 0.000000
vn -0.000000 -1.000000 0.000000
vn 0.000000 1.000000 0.000000
vn 0.000000 -1.000000 -0.000000
vn 0.000000 1.000000 0.000000
vn 0.424434 0.905459 -0.000000
vn 0.000000 0.905459 0.424434
vn 0.000000 0.905459 0.424434
vn -0.424434 0.905459 0.000000
vn -0.424434 0.905459 0.000000
vn 0.000000 0.905459 -0.424434
vn 0.000000 0.905459 -0.424434
vn 0.424434 0.905459 -0.000000
vn 0.000000 -1.000000 0.000000
vn 0.000000 -1.000000 0.000000
vn 0.000000 -1.000000 0.000000
vn -0.000000 -1.000000 0.000000
vn 0.000000 -1.000000 0.000000
vn 0.000000 -1.000000 -0.000000
f 1/1/1 9/2/1 10/3/1
f 1/4/2 10/5/2 2/6/2
f 2/7/3 10/8/3 11/9/3
f 2/10/4 11/11/4 3/12/4
f 3/13/5 11/14/5 12/15/5
f 3/16/6 12/17/6 4/18/6
f 4/19/7 12/20/7 13/21/7
f 4/22/8 13/23/8 5/24/8
f 5/25/9 13/26/9 14/27/9
f 5/28/10 14/29/10 6/30/10
f 6/31/11 14/32/11 15/33/11
f 6/34/12 15/35/12 7/36/12
f 7/37/13 15/38/13 16/39/13
f 7/40/14 16/41/14 8/42/14
f 8/43/15 16/44/15 9/45/15
f 8/46/16 9/47/16 1/48/16
f 9/49/17 17/50/17 18/51/17
f 9/52/18 18/53/18 10/54/18
f 10/55/19 18/56/19 19/57/19
f 10/58/20 19/59/20 11/60/20
f 11/61/21 19/62/21 20/63/21
f 11/64/22 20/65/22 12/66/22
f 12/67/23 20/68/23 21/69/23
f 12/70/24 21/71/24 13/72/24
f 13/73/25 21/74/25 22/75/25
f 13/76/26 22/77/26 14/78/26
f 16/79/27 24/80/27 17/81/27
f 16/82/28 17/83/28 9/84/28
f 17/85/29 25/86/29 26/87/29
f 17/88/30 26/89/30 18/90/30
f 18/91/31 26/92/31 27/93/31
f 18/94/32 27/95/32 19/96/32
f 19/97/33 27/98/33 28/99/33
f 19/100/34 28/101/34 20/102/34
f 20/103/35 28/104/35 29/105/35
f 20/106/36 29/107/36 21/108/36
f 21/109/37 29/110/37 30/111/37
f 21/112/38 30/113/38 22/114/38
f 22/115/39 30/116/39 31/117/39
f 22/118/40 31/119/40 23/120/40
f 23/121/41 31/122/41 32/123/41
f 23/124/42 32/125/42 24/126/42
f 24/127/43 32/128/43 25/129/43
f 24/130/44 25/131/44 17/132/44
f 25/133/45 33/134/45 34/135/45
f 25/136/46 34/137/46 26/138/46
f 26/139/47 34/140/47 35/141/47
f 26/142/48 35/143/48 27/144/48
f 27/145/49 35/146/49 36/147/49
f 27/148/50 36/149/50 28/150/50
f 28/151/51 36/152/51 37/153/51
f 28/154/52 37/155/52 29/156/52
f 29/157/53 37/158/53 38/159/53
f 29/160/54 38/161/54 30/162/54
f 30/163/55 38/164/55 39/165/55
f 30/166/56 39/167/56 31/168/56
f 31/169/57 39/170/57 40/171/57
f 31/172/58 40/173/58 32/174/58
f 32/175/59 40/176/59 33/177/59
f 32/178/60 33/179/60 25/180/60
f 33/181/61 41/182/61 42/183/61
f 33/184/62 42/185/62 34/186/62
f 34/187/63 42/188/63 43/189/63
f 34/190/64 43/191/64 35/192/64
f 35/193/65 43/194/65 44/195/65
f 35/196/66 44/197/66 36/198/66
f 36/199/67 44/200/67 45/201/67
f 36/202/68 45/203/68 37/204/68
f 37/205/69 45/206/69 46/207/69
f 37/208/70 46/209/70 38/210/70
f 38/211/71 46/212/71 47/213/71
f 38/214/72 47/215/72 39/216/72
f 39/217/73 47/218/73 48/219/73
f 39/220/74 48/221/74 40/222/74
f 40/223/75 48/224/75 41/225/75
f 40/226/76 41/227/76 33/228/76
f 41/229/77 49/230/77 50/231/77
f 41/232/78 50/233/78 42/234/78
f 42/235/79 50/236/79 51/237/79
f 42/238/80 51/239/80 43/240/80
f 43/241/81 51/242/81 52/243/81
f 43/244/82 52/245/82 44/246/82
f 44/247/83 52/248/83 53/249/83
f 44/250/84 53/251/84 45/252/84
f 45/253/85 53/254/85 54/255/85
f 45/256/86 54/257/86 46/258/86
f 46/259/87 54/260/87 55/261/87
f 46/262/88 55/263/88 47/264/88
f 47/265/89 55/266/89 56/267/89
f 47/268/90 56/269/90 48/270/90
f 48/271/91 56/272/91 49/273/91
f 48/274/92 49/275/92 41/276/92
f 49/277/93 57/278/93 58/279/93
f 49/280/94 58/281/94 50/282/94
f 50/283/95 58/284/95 59/285/95
f 50/286/96 59/287/96 51/288/96
f 51/289/97 59/290/97 60/291/97
f 51/292/98 60/293/98 52/294/98
f 52/295/99 60/296/99 61/297/99
f 52/298/100 61/299/100 53/300/100
f 53/301/101 61/302/101 62/303/101
f 53/304/102 62/305/102 54/306/102
f 54/307/103 62/308/103 63/309/103
f 54/310/104 63/311/104 55/312/104
f 55/313/105 63/314/105 64/315/105
f 55/316/106 64/317/106 56/318/106
f 56/319/107 64/320/107 57/321/107
f 56/322/108 57/323/108 49/324/108
f 57/325/109 65/326/109 66/327/109
f 57/328/110 66/329/110 58/330/110
f 58/331/111 66/332/111 67/333/111
f 58/334/112 67/335/112 59/336/112
f 59/337/113 67/338/113 68/339/113
f 59/340/114 68/341/114 60/342/114
f 60/343/115 68/344/115 69/345/115
f 60/346/116 69/347/116 61/348/116
f 61/349/117 69/350/117 70/351/117
f 61/352/118 70/353/118 62/354/118
f 62/355/119 70/356/119 71/357/119
f 62/358/120 71/359/120 63/360/120
f 63/361/121 71/362/121 72/363/121
f 63/364/122 72/365/122 64/366/122
f 64/367/123 72/368/123 65/369/123
f 64/370/124 65/371/124 57/372/124
f 65/373/125 73/374/125 74/375/125
f 65/376/126 74/377/126 66/378/126
f 66/379/127 74/380/127 75/381/127
f 66/382/128 75/383/128 67/384/128
f 67/385/129 75/386/129 76/387/129
f 67/388/130 76/389/130 68/390/130
f 68/391/131 76/392/131 77/393/131
f 68/394/132 77/395/132 69/396/132
f 69/397/133 77/398/133 78/399/133
f 69/400/134 78/401/134 70/402/134
f 70/403/135 78/404/135 79/405/135
f 70/406/136 79/407/136 71/408/136
f 71/409/137 79/410/137 80/411/137
f 71/412/138 80/413/138 72/414/138
f 72/415/139 80/416/139 73/417/139
f 72/418/140 73/419/140 65/420/140
f 73/421/141 81/422/141 82/423/141
f 73/424/142 82/425/142 74/426/142
f 74/427/143 82/428/143 83/429/143
f 74/430/144 83/431/144 75/432/144
f 75/433/145 83/434/145 84/435/145
f 75/436/146 84/437/146 76/438/146
f 76/439/147 84/440/147 85/441/147
f 76/442/148 85/443/148 77/444/148
f 77/445/149 85/446/149 86/447/149
f 77/448/150 86/449/150 78/450/150
f 78/451/151 86/452/151 87/453/151
f 78/454/152 87/455/152 79/456/152
f 79/457/153 87/458/153 88/459/153
f 79/460/154 88/461/154 80/462/154
f 80/463/155 88/464/155 81/465/155
f 80/466/156 81/467/156 73/468/156
f 81/469/157 89/470/157 90/471/157
f 81/472/158 90/473/158 82/474/158
f 82/475/159 90/476/159 91/477/159
f 82/478/160 91/479/160 83/480/160
f 83/481/161 91/482/161 92/483/161
f 83/484/162 92/485/162 84/486/162
f 84/487/163 92/488/163 93/489/163
f 84/490/164 93/491/164 85/492/164
f 85/493/165 93/494/165 94/495/165
f 85/496/166 94/497/166 86/498/166
f 86/499/167 94/500/167 95/501/167
f 86/502/168 95/503/168 87/504/168
f 87/505/169 95/506/169 96/507/169
f 87/508/170 96/509/170 88/510/170
f 88/511/171 96/512/171 89/513/171
f 88/514/172 89/515/172 81/516/172
f 89/517/173 97/518/173 98/519/173
f 89/520/174 98/521/174 90/522/174
f 90/523/175 98/524/175 99/525/175
f 90/526/176 99/527/176 91/528/176
f 91/529/177 99/530/177 100/531/177
f 91/532/178 100/533/178 92/534/178
f 92/535/179 100/536/179 101/537/179
f 92/538/180 101/539/180 93/540/180
f 93/541/181 101/542/181 102/543/181
f 93/544/182 102/545/182 94/546/182
f 94/547/183 102/548/183 103/549/183
f 94/550/184 103/551/184 95/552/184
f 95/553/185 103/554/185 104/555/185
f 95/556/186 104/557/186 96/558/186
f 96/559/187 104/560/187 97/561/187
f 96/562/188 97/563/188 89/564/188
f 97/565/189 105/566/189 106/567/189
f 97/568/190 106/569/190 98/570/190
f 98/571/191 106/572/191 107/573/191
f 98/574/192 107/575/192 99/576/192
f 99/577/193 107/578/193 108/579/193
f 99/580/194 108/581/194 100/582/194
f 100/583/195 108/584/195 109/585/195
f 100/586/196 109/587/196 101/588/196
f 101/589/197 109/590/197 110/591/197
f 101/592/198 110/593/198 102/594/198
f 102/595/199 110/596/199 111/597/199
f 102/598/200 111/599/200 103/600/200
f 103/601/201 111/602/201 112/603/201
f 103/604/202 112/605/202 104/606/202
f 104/607/203 112/608/203 105/609/203
f 104/610/204 105/611/204 97/612/204
f 14/613/205 22/614/205 114/615/205
f 14/616/206 114/617/206 113/618/206
f 22/619/207 23/620/207 115/621/207
f 22/622/208 115/623/208 114/624/208
f 23/625/209 24/626/209 116/627/209
f 23/628/210 116/629/210 115/630/210
f 24/631/211 16/632/211 117/633/211
f 24/634/212 117/635/212 116/636/212
f 16/637/213 15/638/213 118/639/213
f 16/640/214 118/641/214 117/642/214
f 15/643/215 14/644/215 113/645/215
f 15/646/216 113/647/216 118/648/216
f 113/649/217 114/650/217 120/651/217
f 113/652/218 120/653/218 119/654/218
f 114/655/219 115/656/219 121/657/219
f 114/658/220 121/659/220 120/660/220
f 115/661/221 116/662/221 122/663/221
f 115/664/222 122/665/222 121/666/222
f 116/667/223 117/668/223 123/669/223
f 116/670/224 123/671/224 122/672/224
f 117/673/225 118/674/225 124/675/225
f 117/676/226 124/677/226 123/678/226
f 118/679/227 113/680/227 119/681/227
f 118/682/228 119/683/228 124/684/228
f 119/685/229 120/686/229 121/687/229
f 119/688/230 121/689/230 124/690/230
f 124/691/231 121/692/231 122/693/231
f 124/694/232 122/695/232 123/696/232
f 125/697/233 129/698/233 130/699/233
f 125/700/234 130/701/234 126/702/234
f 126/703/235 130/704/235 131/705/235
f 126/706/236 131/707/236 127/708/236
f 127/709/237 131/710/237 132/711/237
f 127/712/238 132/713/238 128/714/238
f 128/715/239 132/716/239 129/717/239
f 128/718/240 129/719/240 125/720/240
f 125/721/241 126/722/241 127/723/241
f 129/724/242 131/725/242 130/726/242
f 125/727/243 127/728/243 128/729/243
f 129/730/244 132/731/244 131/732/244
f 133/733/245 137/734/245 138/735/245
f 133/736/246 138/737/246 134/738/246
f 134/739/247 138/740/247 139/741/247
f 134/742/248 139/743/248 135/744/248
f 135/745/249 139/746/249 140/747/249
f 135/748/250 140/749/250 136/750/250
f 136/751/251 140/752/251 137/753/251
f 136/754/252 137/755/252 133/756/252
f 133/757/253 134/758/253 135/759/253
f 137/760/254 139/761/254 138/762/254
f 133/763/255 135/764/255 136/765/255
f 137/766/256 140/767/256 139/768/256
f 105/769/257 141/770/257 106/771/257
f 106/772/258 141/773/258 107/774/258
f 107/775/259 141/776/259 108/777/259
f 108/778/260 141/779/260 109/780/260
f 109/781/261 141/782/261 110/783/261
f 110/784/262 141/785/262 111/786/262
f 111/787/263 141/788/263 112/789/263
f 112/790/264 141/791/264 105/792/264
f 1/793/265 2/794/265 3/795/265
f 1/796/266 3/797/266 4/798/266
f 1/799/267 4/800/267 5/801/267
f 1/802/268 5/803/268 6/804/268
f 1/805/269 6/806/269 7/807/269
f 1/808/270 7/809/270 8/810/270
