# ff9mapkit -- THE LANTERN BEACON (Southern Ring quay marker)
# GENERATED by studies/overworld-topography/southern-ring/mint_quay_beacon.py -- do not hand-edit.
# Original procedural geometry (no game bytes). WORLD coords, Y up; ground plane y=3.00 (skirt buried 0.50u).
# UVs index the shared res(1_24)_objects atlas: stone shaft + warm lantern room.
o LanternBeacon
v 50.300000 2.500000 -1157.000000
v 50.300000 2.500000 -1154.700000
v 48.000000 2.500000 -1154.700000
v 45.700000 2.500000 -1154.700000
v 45.700000 2.500000 -1157.000000
v 45.700000 2.500000 -1159.300000
v 48.000000 2.500000 -1159.300000
v 50.300000 2.500000 -1159.300000
v 50.300000 3.000000 -1157.000000
v 50.300000 3.000000 -1154.700000
v 48.000000 3.000000 -1154.700000
v 45.700000 3.000000 -1154.700000
v 45.700000 3.000000 -1157.000000
v 45.700000 3.000000 -1159.300000
v 48.000000 3.000000 -1159.300000
v 50.300000 3.000000 -1159.300000
v 50.300000 4.300000 -1157.000000
v 50.300000 4.300000 -1154.700000
v 48.000000 4.300000 -1154.700000
v 45.700000 4.300000 -1154.700000
v 45.700000 4.300000 -1157.000000
v 45.700000 4.300000 -1159.300000
v 48.000000 4.300000 -1159.300000
v 50.300000 4.300000 -1159.300000
v 49.800000 4.300000 -1157.000000
v 49.800000 4.300000 -1155.200000
v 48.000000 4.300000 -1155.200000
v 46.200000 4.300000 -1155.200000
v 46.200000 4.300000 -1157.000000
v 46.200000 4.300000 -1158.800000
v 48.000000 4.300000 -1158.800000
v 49.800000 4.300000 -1158.800000
v 49.680000 5.720000 -1157.000000
v 49.680000 5.720000 -1155.320000
v 48.000000 5.720000 -1155.320000
v 46.320000 5.720000 -1155.320000
v 46.320000 5.720000 -1157.000000
v 46.320000 5.720000 -1158.680000
v 48.000000 5.720000 -1158.680000
v 49.680000 5.720000 -1158.680000
v 49.550000 7.150000 -1157.000000
v 49.550000 7.150000 -1155.450000
v 48.000000 7.150000 -1155.450000
v 46.450000 7.150000 -1155.450000
v 46.450000 7.150000 -1157.000000
v 46.450000 7.150000 -1158.550000
v 48.000000 7.150000 -1158.550000
v 49.550000 7.150000 -1158.550000
v 49.430000 8.570000 -1157.000000
v 49.430000 8.570000 -1155.570000
v 48.000000 8.570000 -1155.570000
v 46.570000 8.570000 -1155.570000
v 46.570000 8.570000 -1157.000000
v 46.570000 8.570000 -1158.430000
v 48.000000 8.570000 -1158.430000
v 49.430000 8.570000 -1158.430000
v 49.300000 10.000000 -1157.000000
v 49.300000 10.000000 -1155.700000
v 48.000000 10.000000 -1155.700000
v 46.700000 10.000000 -1155.700000
v 46.700000 10.000000 -1157.000000
v 46.700000 10.000000 -1158.300000
v 48.000000 10.000000 -1158.300000
v 49.300000 10.000000 -1158.300000
v 50.100000 10.000000 -1157.000000
v 50.100000 10.000000 -1154.900000
v 48.000000 10.000000 -1154.900000
v 45.900000 10.000000 -1154.900000
v 45.900000 10.000000 -1157.000000
v 45.900000 10.000000 -1159.100000
v 48.000000 10.000000 -1159.100000
v 50.100000 10.000000 -1159.100000
v 50.100000 10.850000 -1157.000000
v 50.100000 10.850000 -1154.900000
v 48.000000 10.850000 -1154.900000
v 45.900000 10.850000 -1154.900000
v 45.900000 10.850000 -1157.000000
v 45.900000 10.850000 -1159.100000
v 48.000000 10.850000 -1159.100000
v 50.100000 10.850000 -1159.100000
v 49.400000 10.850000 -1157.000000
v 49.400000 10.850000 -1155.600000
v 48.000000 10.850000 -1155.600000
v 46.600000 10.850000 -1155.600000
v 46.600000 10.850000 -1157.000000
v 46.600000 10.850000 -1158.400000
v 48.000000 10.850000 -1158.400000
v 49.400000 10.850000 -1158.400000
v 49.400000 11.850000 -1157.000000
v 49.400000 11.850000 -1155.600000
v 48.000000 11.850000 -1155.600000
v 46.600000 11.850000 -1155.600000
v 46.600000 11.850000 -1157.000000
v 46.600000 11.850000 -1158.400000
v 48.000000 11.850000 -1158.400000
v 49.400000 11.850000 -1158.400000
v 49.400000 12.850000 -1157.000000
v 49.400000 12.850000 -1155.600000
v 48.000000 12.850000 -1155.600000
v 46.600000 12.850000 -1155.600000
v 46.600000 12.850000 -1157.000000
v 46.600000 12.850000 -1158.400000
v 48.000000 12.850000 -1158.400000
v 49.400000 12.850000 -1158.400000
v 49.600000 12.850000 -1157.000000
v 49.600000 12.850000 -1155.400000
v 48.000000 12.850000 -1155.400000
v 46.400000 12.850000 -1155.400000
v 46.400000 12.850000 -1157.000000
v 46.400000 12.850000 -1158.600000
v 48.000000 12.850000 -1158.600000
v 49.600000 12.850000 -1158.600000
v 48.000000 13.600000 -1157.000000
vt 0.004144 0.350844
vt 0.004144 0.381556
vt 0.034956 0.381556
vt 0.004144 0.350844
vt 0.034956 0.381556
vt 0.034956 0.350844
vt 0.004144 0.350844
vt 0.004144 0.381556
vt 0.034956 0.381556
vt 0.004144 0.350844
vt 0.034956 0.381556
vt 0.034956 0.350844
vt 0.004144 0.350844
vt 0.004144 0.381556
vt 0.034956 0.381556
vt 0.004144 0.350844
vt 0.034956 0.381556
vt 0.034956 0.350844
vt 0.004144 0.350844
vt 0.004144 0.381556
vt 0.034956 0.381556
vt 0.004144 0.350844
vt 0.034956 0.381556
vt 0.034956 0.350844
vt 0.004144 0.350844
vt 0.004144 0.381556
vt 0.034956 0.381556
vt 0.004144 0.350844
vt 0.034956 0.381556
vt 0.034956 0.350844
vt 0.004144 0.350844
vt 0.004144 0.381556
vt 0.034956 0.381556
vt 0.004144 0.350844
vt 0.034956 0.381556
vt 0.034956 0.350844
vt 0.004144 0.350844
vt 0.004144 0.381556
vt 0.034956 0.381556
vt 0.004144 0.350844
vt 0.034956 0.381556
vt 0.034956 0.350844
vt 0.004144 0.350844
vt 0.004144 0.381556
vt 0.034956 0.381556
vt 0.004144 0.350844
vt 0.034956 0.381556
vt 0.034956 0.350844
vt 0.004144 0.350844
vt 0.004144 0.381556
vt 0.034956 0.381556
vt 0.004144 0.350844
vt 0.034956 0.381556
vt 0.034956 0.350844
vt 0.004144 0.350844
vt 0.004144 0.381556
vt 0.034956 0.381556
vt 0.004144 0.350844
vt 0.034956 0.381556
vt 0.034956 0.350844
vt 0.004144 0.350844
vt 0.004144 0.381556
vt 0.034956 0.381556
vt 0.004144 0.350844
vt 0.034956 0.381556
vt 0.034956 0.350844
vt 0.004144 0.350844
vt 0.004144 0.381556
vt 0.034956 0.381556
vt 0.004144 0.350844
vt 0.034956 0.381556
vt 0.034956 0.350844
vt 0.004144 0.350844
vt 0.004144 0.381556
vt 0.034956 0.381556
vt 0.004144 0.350844
vt 0.034956 0.381556
vt 0.034956 0.350844
vt 0.004144 0.350844
vt 0.004144 0.381556
vt 0.034956 0.381556
vt 0.004144 0.350844
vt 0.034956 0.381556
vt 0.034956 0.350844
vt 0.004144 0.350844
vt 0.004144 0.381556
vt 0.034956 0.381556
vt 0.004144 0.350844
vt 0.034956 0.381556
vt 0.034956 0.350844
vt 0.004144 0.350844
vt 0.004144 0.381556
vt 0.034956 0.381556
vt 0.004144 0.350844
vt 0.034956 0.381556
vt 0.034956 0.350844
vt 0.004144 0.350844
vt 0.004144 0.381556
vt 0.034956 0.381556
vt 0.004144 0.350844
vt 0.034956 0.381556
vt 0.034956 0.350844
vt 0.004144 0.350844
vt 0.004144 0.381556
vt 0.034956 0.381556
vt 0.004144 0.350844
vt 0.034956 0.381556
vt 0.034956 0.350844
vt 0.004144 0.350844
vt 0.004144 0.381556
vt 0.034956 0.381556
vt 0.004144 0.350844
vt 0.034956 0.381556
vt 0.034956 0.350844
vt 0.004144 0.350844
vt 0.004144 0.381556
vt 0.034956 0.381556
vt 0.004144 0.350844
vt 0.034956 0.381556
vt 0.034956 0.350844
vt 0.004144 0.350844
vt 0.004144 0.381556
vt 0.034956 0.381556
vt 0.004144 0.350844
vt 0.034956 0.381556
vt 0.034956 0.350844
vt 0.004144 0.350844
vt 0.004144 0.381556
vt 0.034956 0.381556
vt 0.004144 0.350844
vt 0.034956 0.381556
vt 0.034956 0.350844
vt 0.004144 0.350844
vt 0.004144 0.381556
vt 0.034956 0.381556
vt 0.004144 0.350844
vt 0.034956 0.381556
vt 0.034956 0.350844
vt 0.004144 0.350844
vt 0.004144 0.381556
vt 0.034956 0.381556
vt 0.004144 0.350844
vt 0.034956 0.381556
vt 0.034956 0.350844
vt 0.004144 0.350844
vt 0.004144 0.381556
vt 0.034956 0.381556
vt 0.004144 0.350844
vt 0.034956 0.381556
vt 0.034956 0.350844
vt 0.004144 0.350844
vt 0.004144 0.381556
vt 0.034956 0.381556
vt 0.004144 0.350844
vt 0.034956 0.381556
vt 0.034956 0.350844
vt 0.004144 0.350844
vt 0.004144 0.381556
vt 0.034956 0.381556
vt 0.004144 0.350844
vt 0.034956 0.381556
vt 0.034956 0.350844
vt 0.004144 0.350844
vt 0.004144 0.381556
vt 0.034956 0.381556
vt 0.004144 0.350844
vt 0.034956 0.381556
vt 0.034956 0.350844
vt 0.004144 0.350844
vt 0.004144 0.381556
vt 0.034956 0.381556
vt 0.004144 0.350844
vt 0.034956 0.381556
vt 0.034956 0.350844
vt 0.004144 0.350844
vt 0.004144 0.381556
vt 0.034956 0.381556
vt 0.004144 0.350844
vt 0.034956 0.381556
vt 0.034956 0.350844
vt 0.004144 0.350844
vt 0.004144 0.381556
vt 0.034956 0.381556
vt 0.004144 0.350844
vt 0.034956 0.381556
vt 0.034956 0.350844
vt 0.004144 0.350844
vt 0.004144 0.381556
vt 0.034956 0.381556
vt 0.004144 0.350844
vt 0.034956 0.381556
vt 0.034956 0.350844
vt 0.004144 0.350844
vt 0.004144 0.381556
vt 0.034956 0.381556
vt 0.004144 0.350844
vt 0.034956 0.381556
vt 0.034956 0.350844
vt 0.004144 0.350844
vt 0.004144 0.381556
vt 0.034956 0.381556
vt 0.004144 0.350844
vt 0.034956 0.381556
vt 0.034956 0.350844
vt 0.004144 0.350844
vt 0.004144 0.381556
vt 0.034956 0.381556
vt 0.004144 0.350844
vt 0.034956 0.381556
vt 0.034956 0.350844
vt 0.004144 0.350844
vt 0.004144 0.381556
vt 0.034956 0.381556
vt 0.004144 0.350844
vt 0.034956 0.381556
vt 0.034956 0.350844
vt 0.004144 0.350844
vt 0.004144 0.381556
vt 0.034956 0.381556
vt 0.004144 0.350844
vt 0.034956 0.381556
vt 0.034956 0.350844
vt 0.004144 0.350844
vt 0.004144 0.381556
vt 0.034956 0.381556
vt 0.004144 0.350844
vt 0.034956 0.381556
vt 0.034956 0.350844
vt 0.004144 0.350844
vt 0.004144 0.381556
vt 0.034956 0.381556
vt 0.004144 0.350844
vt 0.034956 0.381556
vt 0.034956 0.350844
vt 0.004144 0.350844
vt 0.004144 0.381556
vt 0.034956 0.381556
vt 0.004144 0.350844
vt 0.034956 0.381556
vt 0.034956 0.350844
vt 0.004144 0.350844
vt 0.004144 0.381556
vt 0.034956 0.381556
vt 0.004144 0.350844
vt 0.034956 0.381556
vt 0.034956 0.350844
vt 0.004144 0.350844
vt 0.004144 0.381556
vt 0.034956 0.381556
vt 0.004144 0.350844
vt 0.034956 0.381556
vt 0.034956 0.350844
vt 0.004144 0.350844
vt 0.004144 0.381556
vt 0.034956 0.381556
vt 0.004144 0.350844
vt 0.034956 0.381556
vt 0.034956 0.350844
vt 0.004144 0.350844
vt 0.004144 0.381556
vt 0.034956 0.381556
vt 0.004144 0.350844
vt 0.034956 0.381556
vt 0.034956 0.350844
vt 0.004144 0.350844
vt 0.004144 0.381556
vt 0.034956 0.381556
vt 0.004144 0.350844
vt 0.034956 0.381556
vt 0.034956 0.350844
vt 0.004144 0.350844
vt 0.004144 0.381556
vt 0.034956 0.381556
vt 0.004144 0.350844
vt 0.034956 0.381556
vt 0.034956 0.350844
vt 0.004144 0.350844
vt 0.004144 0.381556
vt 0.034956 0.381556
vt 0.004144 0.350844
vt 0.034956 0.381556
vt 0.034956 0.350844
vt 0.004144 0.350844
vt 0.004144 0.381556
vt 0.034956 0.381556
vt 0.004144 0.350844
vt 0.034956 0.381556
vt 0.034956 0.350844
vt 0.004144 0.350844
vt 0.004144 0.381556
vt 0.034956 0.381556
vt 0.004144 0.350844
vt 0.034956 0.381556
vt 0.034956 0.350844
vt 0.004144 0.350844
vt 0.004144 0.381556
vt 0.034956 0.381556
vt 0.004144 0.350844
vt 0.034956 0.381556
vt 0.034956 0.350844
vt 0.004144 0.350844
vt 0.004144 0.381556
vt 0.034956 0.381556
vt 0.004144 0.350844
vt 0.034956 0.381556
vt 0.034956 0.350844
vt 0.004144 0.350844
vt 0.004144 0.381556
vt 0.034956 0.381556
vt 0.004144 0.350844
vt 0.034956 0.381556
vt 0.034956 0.350844
vt 0.004144 0.350844
vt 0.004144 0.381556
vt 0.034956 0.381556
vt 0.004144 0.350844
vt 0.034956 0.381556
vt 0.034956 0.350844
vt 0.004144 0.350844
vt 0.004144 0.381556
vt 0.034956 0.381556
vt 0.004144 0.350844
vt 0.034956 0.381556
vt 0.034956 0.350844
vt 0.004144 0.350844
vt 0.004144 0.381556
vt 0.034956 0.381556
vt 0.004144 0.350844
vt 0.034956 0.381556
vt 0.034956 0.350844
vt 0.004144 0.350844
vt 0.004144 0.381556
vt 0.034956 0.381556
vt 0.004144 0.350844
vt 0.034956 0.381556
vt 0.034956 0.350844
vt 0.004144 0.350844
vt 0.004144 0.381556
vt 0.034956 0.381556
vt 0.004144 0.350844
vt 0.034956 0.381556
vt 0.034956 0.350844
vt 0.004144 0.350844
vt 0.004144 0.381556
vt 0.034956 0.381556
vt 0.004144 0.350844
vt 0.034956 0.381556
vt 0.034956 0.350844
vt 0.004144 0.350844
vt 0.004144 0.381556
vt 0.034956 0.381556
vt 0.004144 0.350844
vt 0.034956 0.381556
vt 0.034956 0.350844
vt 0.004144 0.350844
vt 0.004144 0.381556
vt 0.034956 0.381556
vt 0.004144 0.350844
vt 0.034956 0.381556
vt 0.034956 0.350844
vt 0.004144 0.350844
vt 0.004144 0.381556
vt 0.034956 0.381556
vt 0.004144 0.350844
vt 0.034956 0.381556
vt 0.034956 0.350844
vt 0.004144 0.350844
vt 0.004144 0.381556
vt 0.034956 0.381556
vt 0.004144 0.350844
vt 0.034956 0.381556
vt 0.034956 0.350844
vt 0.004144 0.350844
vt 0.004144 0.381556
vt 0.034956 0.381556
vt 0.004144 0.350844
vt 0.034956 0.381556
vt 0.034956 0.350844
vt 0.004144 0.350844
vt 0.004144 0.381556
vt 0.034956 0.381556
vt 0.004144 0.350844
vt 0.034956 0.381556
vt 0.034956 0.350844
vt 0.004144 0.350844
vt 0.004144 0.381556
vt 0.034956 0.381556
vt 0.004144 0.350844
vt 0.034956 0.381556
vt 0.034956 0.350844
vt 0.004144 0.350844
vt 0.004144 0.381556
vt 0.034956 0.381556
vt 0.004144 0.350844
vt 0.034956 0.381556
vt 0.034956 0.350844
vt 0.004144 0.350844
vt 0.004144 0.381556
vt 0.034956 0.381556
vt 0.004144 0.350844
vt 0.034956 0.381556
vt 0.034956 0.350844
vt 0.004144 0.350844
vt 0.004144 0.381556
vt 0.034956 0.381556
vt 0.004144 0.350844
vt 0.034956 0.381556
vt 0.034956 0.350844
vt 0.004144 0.350844
vt 0.004144 0.381556
vt 0.034956 0.381556
vt 0.004144 0.350844
vt 0.034956 0.381556
vt 0.034956 0.350844
vt 0.004144 0.350844
vt 0.004144 0.381556
vt 0.034956 0.381556
vt 0.004144 0.350844
vt 0.034956 0.381556
vt 0.034956 0.350844
vt 0.004144 0.350844
vt 0.004144 0.381556
vt 0.034956 0.381556
vt 0.004144 0.350844
vt 0.034956 0.381556
vt 0.034956 0.350844
vt 0.004144 0.350844
vt 0.004144 0.381556
vt 0.034956 0.381556
vt 0.004144 0.350844
vt 0.034956 0.381556
vt 0.034956 0.350844
vt 0.004144 0.350844
vt 0.004144 0.381556
vt 0.034956 0.381556
vt 0.004144 0.350844
vt 0.034956 0.381556
vt 0.034956 0.350844
vt 0.004144 0.350844
vt 0.004144 0.381556
vt 0.034956 0.381556
vt 0.004144 0.350844
vt 0.034956 0.381556
vt 0.034956 0.350844
vt 0.004144 0.350844
vt 0.004144 0.381556
vt 0.034956 0.381556
vt 0.004144 0.350844
vt 0.034956 0.381556
vt 0.034956 0.350844
vt 0.004144 0.350844
vt 0.004144 0.381556
vt 0.034956 0.381556
vt 0.004144 0.350844
vt 0.034956 0.381556
vt 0.034956 0.350844
vt 0.004144 0.350844
vt 0.004144 0.381556
vt 0.034956 0.381556
vt 0.004144 0.350844
vt 0.034956 0.381556
vt 0.034956 0.350844
vt 0.004144 0.350844
vt 0.004144 0.381556
vt 0.034956 0.381556
vt 0.004144 0.350844
vt 0.034956 0.381556
vt 0.034956 0.350844
vt 0.004144 0.350844
vt 0.004144 0.381556
vt 0.034956 0.381556
vt 0.004144 0.350844
vt 0.034956 0.381556
vt 0.034956 0.350844
vt 0.004144 0.350844
vt 0.004144 0.381556
vt 0.034956 0.381556
vt 0.004144 0.350844
vt 0.034956 0.381556
vt 0.034956 0.350844
vt 0.334244 0.435744
vt 0.334244 0.456756
vt 0.361056 0.456756
vt 0.334244 0.435744
vt 0.361056 0.456756
vt 0.361056 0.435744
vt 0.334244 0.435744
vt 0.334244 0.456756
vt 0.361056 0.456756
vt 0.334244 0.435744
vt 0.361056 0.456756
vt 0.361056 0.435744
vt 0.334244 0.435744
vt 0.334244 0.456756
vt 0.361056 0.456756
vt 0.334244 0.435744
vt 0.361056 0.456756
vt 0.361056 0.435744
vt 0.334244 0.435744
vt 0.334244 0.456756
vt 0.361056 0.456756
vt 0.334244 0.435744
vt 0.361056 0.456756
vt 0.361056 0.435744
vt 0.334244 0.435744
vt 0.334244 0.456756
vt 0.361056 0.456756
vt 0.334244 0.435744
vt 0.361056 0.456756
vt 0.361056 0.435744
vt 0.334244 0.435744
vt 0.334244 0.456756
vt 0.361056 0.456756
vt 0.334244 0.435744
vt 0.361056 0.456756
vt 0.361056 0.435744
vt 0.334244 0.435744
vt 0.334244 0.456756
vt 0.361056 0.456756
vt 0.334244 0.435744
vt 0.361056 0.456756
vt 0.361056 0.435744
vt 0.334244 0.435744
vt 0.334244 0.456756
vt 0.361056 0.456756
vt 0.334244 0.435744
vt 0.361056 0.456756
vt 0.361056 0.435744
vt 0.334244 0.435744
vt 0.334244 0.456756
vt 0.361056 0.456756
vt 0.334244 0.435744
vt 0.361056 0.456756
vt 0.361056 0.435744
vt 0.334244 0.435744
vt 0.334244 0.456756
vt 0.361056 0.456756
vt 0.334244 0.435744
vt 0.361056 0.456756
vt 0.361056 0.435744
vt 0.334244 0.435744
vt 0.334244 0.456756
vt 0.361056 0.456756
vt 0.334244 0.435744
vt 0.361056 0.456756
vt 0.361056 0.435744
vt 0.334244 0.435744
vt 0.334244 0.456756
vt 0.361056 0.456756
vt 0.334244 0.435744
vt 0.361056 0.456756
vt 0.361056 0.435744
vt 0.334244 0.435744
vt 0.334244 0.456756
vt 0.361056 0.456756
vt 0.334244 0.435744
vt 0.361056 0.456756
vt 0.361056 0.435744
vt 0.334244 0.435744
vt 0.334244 0.456756
vt 0.361056 0.456756
vt 0.334244 0.435744
vt 0.361056 0.456756
vt 0.361056 0.435744
vt 0.334244 0.435744
vt 0.334244 0.456756
vt 0.361056 0.456756
vt 0.334244 0.435744
vt 0.361056 0.456756
vt 0.361056 0.435744
vt 0.334244 0.435744
vt 0.334244 0.456756
vt 0.361056 0.456756
vt 0.334244 0.435744
vt 0.361056 0.456756
vt 0.361056 0.435744
vt 0.004144 0.350844
vt 0.004144 0.381556
vt 0.034956 0.381556
vt 0.004144 0.350844
vt 0.034956 0.381556
vt 0.034956 0.350844
vt 0.004144 0.350844
vt 0.004144 0.381556
vt 0.034956 0.381556
vt 0.004144 0.350844
vt 0.034956 0.381556
vt 0.034956 0.350844
vt 0.004144 0.350844
vt 0.004144 0.381556
vt 0.034956 0.381556
vt 0.004144 0.350844
vt 0.034956 0.381556
vt 0.034956 0.350844
vt 0.004144 0.350844
vt 0.004144 0.381556
vt 0.034956 0.381556
vt 0.004144 0.350844
vt 0.034956 0.381556
vt 0.034956 0.350844
vt 0.004144 0.350844
vt 0.004144 0.381556
vt 0.034956 0.381556
vt 0.004144 0.350844
vt 0.034956 0.381556
vt 0.034956 0.350844
vt 0.004144 0.350844
vt 0.004144 0.381556
vt 0.034956 0.381556
vt 0.004144 0.350844
vt 0.034956 0.381556
vt 0.034956 0.350844
vt 0.004144 0.350844
vt 0.004144 0.381556
vt 0.034956 0.381556
vt 0.004144 0.350844
vt 0.034956 0.381556
vt 0.034956 0.350844
vt 0.004144 0.350844
vt 0.004144 0.381556
vt 0.034956 0.381556
vt 0.004144 0.350844
vt 0.034956 0.381556
vt 0.034956 0.350844
vt 0.004144 0.350844
vt 0.019550 0.381556
vt 0.034956 0.350844
vt 0.004144 0.350844
vt 0.019550 0.381556
vt 0.034956 0.350844
vt 0.004144 0.350844
vt 0.019550 0.381556
vt 0.034956 0.350844
vt 0.004144 0.350844
vt 0.019550 0.381556
vt 0.034956 0.350844
vt 0.004144 0.350844
vt 0.019550 0.381556
vt 0.034956 0.350844
vt 0.004144 0.350844
vt 0.019550 0.381556
vt 0.034956 0.350844
vt 0.004144 0.350844
vt 0.019550 0.381556
vt 0.034956 0.350844
vt 0.004144 0.350844
vt 0.019550 0.381556
vt 0.034956 0.350844
vt 0.004144 0.350844
vt 0.034956 0.350844
vt 0.034956 0.381556
vt 0.004144 0.350844
vt 0.034956 0.350844
vt 0.034956 0.381556
vt 0.004144 0.350844
vt 0.034956 0.350844
vt 0.034956 0.381556
vt 0.004144 0.350844
vt 0.034956 0.350844
vt 0.034956 0.381556
vt 0.004144 0.350844
vt 0.034956 0.350844
vt 0.034956 0.381556
vt 0.004144 0.350844
vt 0.034956 0.350844
vt 0.034956 0.381556
vn 1.000000 0.000000 0.000000
vn 1.000000 0.000000 0.000000
vn 0.000000 -0.000000 1.000000
vn 0.000000 0.000000 1.000000
vn 0.000000 -0.000000 1.000000
vn 0.000000 0.000000 1.000000
vn -1.000000 0.000000 0.000000
vn -1.000000 0.000000 0.000000
vn -1.000000 0.000000 0.000000
vn -1.000000 0.000000 0.000000
vn 0.000000 0.000000 -1.000000
vn 0.000000 0.000000 -1.000000
vn 0.000000 0.000000 -1.000000
vn 0.000000 0.000000 -1.000000
vn 1.000000 0.000000 0.000000
vn 1.000000 0.000000 0.000000
vn 1.000000 0.000000 0.000000
vn 1.000000 0.000000 0.000000
vn 0.000000 -0.000000 1.000000
vn 0.000000 0.000000 1.000000
vn 0.000000 -0.000000 1.000000
vn 0.000000 0.000000 1.000000
vn -1.000000 0.000000 0.000000
vn -1.000000 0.000000 0.000000
vn -1.000000 0.000000 0.000000
vn -1.000000 0.000000 0.000000
vn 0.000000 0.000000 -1.000000
vn 0.000000 0.000000 -1.000000
vn 0.000000 0.000000 -1.000000
vn 0.000000 0.000000 -1.000000
vn 1.000000 0.000000 0.000000
vn 1.000000 0.000000 0.000000
vn 0.000000 1.000000 0.000000
vn 0.000000 1.000000 -0.000000
vn 0.000000 1.000000 0.000000
vn 0.000000 1.000000 0.000000
vn 0.000000 1.000000 0.000000
vn 0.000000 1.000000 0.000000
vn 0.000000 1.000000 0.000000
vn 0.000000 1.000000 0.000000
vn -0.000000 1.000000 0.000000
vn 0.000000 1.000000 0.000000
vn 0.000000 1.000000 0.000000
vn 0.000000 1.000000 0.000000
vn 0.000000 1.000000 0.000000
vn 0.000000 1.000000 0.000000
vn 0.000000 1.000000 0.000000
vn 0.000000 1.000000 -0.000000
vn 0.996448 0.084207 0.000000
vn 0.996448 0.084207 -0.000000
vn 0.000000 0.084207 0.996448
vn 0.000000 0.084207 0.996448
vn 0.000000 0.084207 0.996448
vn 0.000000 0.084207 0.996448
vn -0.996448 0.084207 0.000000
vn -0.996448 0.084207 0.000000
vn -0.996448 0.084207 0.000000
vn -0.996448 0.084207 0.000000
vn 0.000000 0.084207 -0.996448
vn 0.000000 0.084207 -0.996448
vn 0.000000 0.084207 -0.996448
vn 0.000000 0.084207 -0.996448
vn 0.996448 0.084207 0.000000
vn 0.996448 0.084207 -0.000000
vn 0.995893 0.090536 0.000000
vn 0.995893 0.090536 -0.000000
vn 0.000000 0.090536 0.995893
vn 0.000000 0.090536 0.995893
vn 0.000000 0.090536 0.995893
vn 0.000000 0.090536 0.995893
vn -0.995893 0.090536 0.000000
vn -0.995893 0.090536 0.000000
vn -0.995893 0.090536 0.000000
vn -0.995893 0.090536 0.000000
vn 0.000000 0.090536 -0.995893
vn 0.000000 0.090536 -0.995893
vn 0.000000 0.090536 -0.995893
vn 0.000000 0.090536 -0.995893
vn 0.995893 0.090536 0.000000
vn 0.995893 0.090536 -0.000000
vn 0.996448 0.084207 0.000000
vn 0.996448 0.084207 -0.000000
vn 0.000000 0.084207 0.996448
vn 0.000000 0.084207 0.996448
vn 0.000000 0.084207 0.996448
vn 0.000000 0.084207 0.996448
vn -0.996448 0.084207 0.000000
vn -0.996448 0.084207 0.000000
vn -0.996448 0.084207 0.000000
vn -0.996448 0.084207 0.000000
vn 0.000000 0.084207 -0.996448
vn 0.000000 0.084207 -0.996448
vn 0.000000 0.084207 -0.996448
vn 0.000000 0.084207 -0.996448
vn 0.996448 0.084207 0.000000
vn 0.996448 0.084207 -0.000000
vn 0.995893 0.090536 0.000000
vn 0.995893 0.090536 -0.000000
vn 0.000000 0.090536 0.995893
vn 0.000000 0.090536 0.995893
vn 0.000000 0.090536 0.995893
vn 0.000000 0.090536 0.995893
vn -0.995893 0.090536 0.000000
vn -0.995893 0.090536 0.000000
vn -0.995893 0.090536 0.000000
vn -0.995893 0.090536 0.000000
vn 0.000000 0.090536 -0.995893
vn 0.000000 0.090536 -0.995893
vn 0.000000 0.090536 -0.995893
vn 0.000000 0.090536 -0.995893
vn 0.995893 0.090536 0.000000
vn 0.995893 0.090536 -0.000000
vn 0.000000 -1.000000 0.000000
vn 0.000000 -1.000000 0.000000
vn 0.000000 -1.000000 0.000000
vn 0.000000 -1.000000 0.000000
vn 0.000000 -1.000000 0.000000
vn 0.000000 -1.000000 0.000000
vn -0.000000 -1.000000 0.000000
vn 0.000000 -1.000000 -0.000000
vn -0.000000 -1.000000 0.000000
vn 0.000000 -1.000000 -0.000000
vn 0.000000 -1.000000 -0.000000
vn 0.000000 -1.000000 0.000000
vn 0.000000 -1.000000 0.000000
vn 0.000000 -1.000000 0.000000
vn 0.000000 -1.000000 0.000000
vn 0.000000 -1.000000 0.000000
vn 1.000000 0.000000 0.000000
vn 1.000000 0.000000 0.000000
vn 0.000000 -0.000000 1.000000
vn 0.000000 0.000000 1.000000
vn 0.000000 -0.000000 1.000000
vn 0.000000 0.000000 1.000000
vn -1.000000 0.000000 0.000000
vn -1.000000 0.000000 0.000000
vn -1.000000 0.000000 0.000000
vn -1.000000 0.000000 0.000000
vn 0.000000 0.000000 -1.000000
vn 0.000000 0.000000 -1.000000
vn 0.000000 0.000000 -1.000000
vn 0.000000 0.000000 -1.000000
vn 1.000000 0.000000 0.000000
vn 1.000000 0.000000 0.000000
vn 0.000000 1.000000 0.000000
vn 0.000000 1.000000 -0.000000
vn 0.000000 1.000000 0.000000
vn 0.000000 1.000000 0.000000
vn 0.000000 1.000000 0.000000
vn 0.000000 1.000000 0.000000
vn 0.000000 1.000000 0.000000
vn 0.000000 1.000000 0.000000
vn -0.000000 1.000000 0.000000
vn 0.000000 1.000000 0.000000
vn 0.000000 1.000000 0.000000
vn 0.000000 1.000000 0.000000
vn 0.000000 1.000000 0.000000
vn 0.000000 1.000000 0.000000
vn 0.000000 1.000000 0.000000
vn 0.000000 1.000000 -0.000000
vn 1.000000 0.000000 0.000000
vn 1.000000 0.000000 0.000000
vn 0.000000 -0.000000 1.000000
vn 0.000000 0.000000 1.000000
vn 0.000000 -0.000000 1.000000
vn 0.000000 0.000000 1.000000
vn -1.000000 0.000000 0.000000
vn -1.000000 0.000000 0.000000
vn -1.000000 0.000000 0.000000
vn -1.000000 0.000000 0.000000
vn 0.000000 0.000000 -1.000000
vn 0.000000 0.000000 -1.000000
vn 0.000000 0.000000 -1.000000
vn 0.000000 0.000000 -1.000000
vn 1.000000 0.000000 0.000000
vn 1.000000 0.000000 0.000000
vn 1.000000 0.000000 0.000000
vn 1.000000 0.000000 0.000000
vn 0.000000 -0.000000 1.000000
vn 0.000000 0.000000 1.000000
vn 0.000000 -0.000000 1.000000
vn 0.000000 0.000000 1.000000
vn -1.000000 0.000000 0.000000
vn -1.000000 0.000000 0.000000
vn -1.000000 0.000000 0.000000
vn -1.000000 0.000000 0.000000
vn 0.000000 0.000000 -1.000000
vn 0.000000 0.000000 -1.000000
vn 0.000000 0.000000 -1.000000
vn 0.000000 0.000000 -1.000000
vn 1.000000 0.000000 0.000000
vn 1.000000 0.000000 0.000000
vn 0.000000 -1.000000 0.000000
vn 0.000000 -1.000000 0.000000
vn 0.000000 -1.000000 0.000000
vn 0.000000 -1.000000 0.000000
vn 0.000000 -1.000000 0.000000
vn 0.000000 -1.000000 0.000000
vn -0.000000 -1.000000 0.000000
vn 0.000000 -1.000000 -0.000000
vn -0.000000 -1.000000 0.000000
vn 0.000000 -1.000000 -0.000000
vn 0.000000 -1.000000 -0.000000
vn 0.000000 -1.000000 0.000000
vn 0.000000 -1.000000 0.000000
vn 0.000000 -1.000000 0.000000
vn 0.000000 -1.000000 0.000000
vn 0.000000 -1.000000 0.000000
vn 0.424434 0.905459 -0.000000
vn 0.000000 0.905459 0.424434
vn 0.000000 0.905459 0.424434
vn -0.424434 0.905459 0.000000
vn -0.424434 0.905459 0.000000
vn 0.000000 0.905459 -0.424434
vn 0.000000 0.905459 -0.424434
vn 0.424434 0.905459 -0.000000
vn 0.000000 -1.000000 0.000000
vn 0.000000 -1.000000 0.000000
vn 0.000000 -1.000000 0.000000
vn -0.000000 -1.000000 0.000000
vn 0.000000 -1.000000 0.000000
vn 0.000000 -1.000000 -0.000000
f 1/1/1 9/2/1 10/3/1
f 1/4/2 10/5/2 2/6/2
f 2/7/3 10/8/3 11/9/3
f 2/10/4 11/11/4 3/12/4
f 3/13/5 11/14/5 12/15/5
f 3/16/6 12/17/6 4/18/6
f 4/19/7 12/20/7 13/21/7
f 4/22/8 13/23/8 5/24/8
f 5/25/9 13/26/9 14/27/9
f 5/28/10 14/29/10 6/30/10
f 6/31/11 14/32/11 15/33/11
f 6/34/12 15/35/12 7/36/12
f 7/37/13 15/38/13 16/39/13
f 7/40/14 16/41/14 8/42/14
f 8/43/15 16/44/15 9/45/15
f 8/46/16 9/47/16 1/48/16
f 9/49/17 17/50/17 18/51/17
f 9/52/18 18/53/18 10/54/18
f 10/55/19 18/56/19 19/57/19
f 10/58/20 19/59/20 11/60/20
f 11/61/21 19/62/21 20/63/21
f 11/64/22 20/65/22 12/66/22
f 12/67/23 20/68/23 21/69/23
f 12/70/24 21/71/24 13/72/24
f 13/73/25 21/74/25 22/75/25
f 13/76/26 22/77/26 14/78/26
f 14/79/27 22/80/27 23/81/27
f 14/82/28 23/83/28 15/84/28
f 15/85/29 23/86/29 24/87/29
f 15/88/30 24/89/30 16/90/30
f 16/91/31 24/92/31 17/93/31
f 16/94/32 17/95/32 9/96/32
f 17/97/33 25/98/33 26/99/33
f 17/100/34 26/101/34 18/102/34
f 18/103/35 26/104/35 27/105/35
f 18/106/36 27/107/36 19/108/36
f 19/109/37 27/110/37 28/111/37
f 19/112/38 28/113/38 20/114/38
f 20/115/39 28/116/39 29/117/39
f 20/118/40 29/119/40 21/120/40
f 21/121/41 29/122/41 30/123/41
f 21/124/42 30/125/42 22/126/42
f 22/127/43 30/128/43 31/129/43
f 22/130/44 31/131/44 23/132/44
f 23/133/45 31/134/45 32/135/45
f 23/136/46 32/137/46 24/138/46
f 24/139/47 32/140/47 25/141/47
f 24/142/48 25/143/48 17/144/48
f 25/145/49 33/146/49 34/147/49
f 25/148/50 34/149/50 26/150/50
f 26/151/51 34/152/51 35/153/51
f 26/154/52 35/155/52 27/156/52
f 27/157/53 35/158/53 36/159/53
f 27/160/54 36/161/54 28/162/54
f 28/163/55 36/164/55 37/165/55
f 28/166/56 37/167/56 29/168/56
f 29/169/57 37/170/57 38/171/57
f 29/172/58 38/173/58 30/174/58
f 30/175/59 38/176/59 39/177/59
f 30/178/60 39/179/60 31/180/60
f 31/181/61 39/182/61 40/183/61
f 31/184/62 40/185/62 32/186/62
f 32/187/63 40/188/63 33/189/63
f 32/190/64 33/191/64 25/192/64
f 33/193/65 41/194/65 42/195/65
f 33/196/66 42/197/66 34/198/66
f 34/199/67 42/200/67 43/201/67
f 34/202/68 43/203/68 35/204/68
f 35/205/69 43/206/69 44/207/69
f 35/208/70 44/209/70 36/210/70
f 36/211/71 44/212/71 45/213/71
f 36/214/72 45/215/72 37/216/72
f 37/217/73 45/218/73 46/219/73
f 37/220/74 46/221/74 38/222/74
f 38/223/75 46/224/75 47/225/75
f 38/226/76 47/227/76 39/228/76
f 39/229/77 47/230/77 48/231/77
f 39/232/78 48/233/78 40/234/78
f 40/235/79 48/236/79 41/237/79
f 40/238/80 41/239/80 33/240/80
f 41/241/81 49/242/81 50/243/81
f 41/244/82 50/245/82 42/246/82
f 42/247/83 50/248/83 51/249/83
f 42/250/84 51/251/84 43/252/84
f 43/253/85 51/254/85 52/255/85
f 43/256/86 52/257/86 44/258/86
f 44/259/87 52/260/87 53/261/87
f 44/262/88 53/263/88 45/264/88
f 45/265/89 53/266/89 54/267/89
f 45/268/90 54/269/90 46/270/90
f 46/271/91 54/272/91 55/273/91
f 46/274/92 55/275/92 47/276/92
f 47/277/93 55/278/93 56/279/93
f 47/280/94 56/281/94 48/282/94
f 48/283/95 56/284/95 49/285/95
f 48/286/96 49/287/96 41/288/96
f 49/289/97 57/290/97 58/291/97
f 49/292/98 58/293/98 50/294/98
f 50/295/99 58/296/99 59/297/99
f 50/298/100 59/299/100 51/300/100
f 51/301/101 59/302/101 60/303/101
f 51/304/102 60/305/102 52/306/102
f 52/307/103 60/308/103 61/309/103
f 52/310/104 61/311/104 53/312/104
f 53/313/105 61/314/105 62/315/105
f 53/316/106 62/317/106 54/318/106
f 54/319/107 62/320/107 63/321/107
f 54/322/108 63/323/108 55/324/108
f 55/325/109 63/326/109 64/327/109
f 55/328/110 64/329/110 56/330/110
f 56/331/111 64/332/111 57/333/111
f 56/334/112 57/335/112 49/336/112
f 57/337/113 65/338/113 66/339/113
f 57/340/114 66/341/114 58/342/114
f 58/343/115 66/344/115 67/345/115
f 58/346/116 67/347/116 59/348/116
f 59/349/117 67/350/117 68/351/117
f 59/352/118 68/353/118 60/354/118
f 60/355/119 68/356/119 69/357/119
f 60/358/120 69/359/120 61/360/120
f 61/361/121 69/362/121 70/363/121
f 61/364/122 70/365/122 62/366/122
f 62/367/123 70/368/123 71/369/123
f 62/370/124 71/371/124 63/372/124
f 63/373/125 71/374/125 72/375/125
f 63/376/126 72/377/126 64/378/126
f 64/379/127 72/380/127 65/381/127
f 64/382/128 65/383/128 57/384/128
f 65/385/129 73/386/129 74/387/129
f 65/388/130 74/389/130 66/390/130
f 66/391/131 74/392/131 75/393/131
f 66/394/132 75/395/132 67/396/132
f 67/397/133 75/398/133 76/399/133
f 67/400/134 76/401/134 68/402/134
f 68/403/135 76/404/135 77/405/135
f 68/406/136 77/407/136 69/408/136
f 69/409/137 77/410/137 78/411/137
f 69/412/138 78/413/138 70/414/138
f 70/415/139 78/416/139 79/417/139
f 70/418/140 79/419/140 71/420/140
f 71/421/141 79/422/141 80/423/141
f 71/424/142 80/425/142 72/426/142
f 72/427/143 80/428/143 73/429/143
f 72/430/144 73/431/144 65/432/144
f 73/433/145 81/434/145 82/435/145
f 73/436/146 82/437/146 74/438/146
f 74/439/147 82/440/147 83/441/147
f 74/442/148 83/443/148 75/444/148
f 75/445/149 83/446/149 84/447/149
f 75/448/150 84/449/150 76/450/150
f 76/451/151 84/452/151 85/453/151
f 76/454/152 85/455/152 77/456/152
f 77/457/153 85/458/153 86/459/153
f 77/460/154 86/461/154 78/462/154
f 78/463/155 86/464/155 87/465/155
f 78/466/156 87/467/156 79/468/156
f 79/469/157 87/470/157 88/471/157
f 79/472/158 88/473/158 80/474/158
f 80/475/159 88/476/159 81/477/159
f 80/478/160 81/479/160 73/480/160
f 81/481/161 89/482/161 90/483/161
f 81/484/162 90/485/162 82/486/162
f 82/487/163 90/488/163 91/489/163
f 82/490/164 91/491/164 83/492/164
f 83/493/165 91/494/165 92/495/165
f 83/496/166 92/497/166 84/498/166
f 84/499/167 92/500/167 93/501/167
f 84/502/168 93/503/168 85/504/168
f 85/505/169 93/506/169 94/507/169
f 85/508/170 94/509/170 86/510/170
f 86/511/171 94/512/171 95/513/171
f 86/514/172 95/515/172 87/516/172
f 87/517/173 95/518/173 96/519/173
f 87/520/174 96/521/174 88/522/174
f 88/523/175 96/524/175 89/525/175
f 88/526/176 89/527/176 81/528/176
f 89/529/177 97/530/177 98/531/177
f 89/532/178 98/533/178 90/534/178
f 90/535/179 98/536/179 99/537/179
f 90/538/180 99/539/180 91/540/180
f 91/541/181 99/542/181 100/543/181
f 91/544/182 100/545/182 92/546/182
f 92/547/183 100/548/183 101/549/183
f 92/550/184 101/551/184 93/552/184
f 93/553/185 101/554/185 102/555/185
f 93/556/186 102/557/186 94/558/186
f 94/559/187 102/560/187 103/561/187
f 94/562/188 103/563/188 95/564/188
f 95/565/189 103/566/189 104/567/189
f 95/568/190 104/569/190 96/570/190
f 96/571/191 104/572/191 97/573/191
f 96/574/192 97/575/192 89/576/192
f 97/577/193 105/578/193 106/579/193
f 97/580/194 106/581/194 98/582/194
f 98/583/195 106/584/195 107/585/195
f 98/586/196 107/587/196 99/588/196
f 99/589/197 107/590/197 108/591/197
f 99/592/198 108/593/198 100/594/198
f 100/595/199 108/596/199 109/597/199
f 100/598/200 109/599/200 101/600/200
f 101/601/201 109/602/201 110/603/201
f 101/604/202 110/605/202 102/606/202
f 102/607/203 110/608/203 111/609/203
f 102/610/204 111/611/204 103/612/204
f 103/613/205 111/614/205 112/615/205
f 103/616/206 112/617/206 104/618/206
f 104/619/207 112/620/207 105/621/207
f 104/622/208 105/623/208 97/624/208
f 105/625/209 113/626/209 106/627/209
f 106/628/210 113/629/210 107/630/210
f 107/631/211 113/632/211 108/633/211
f 108/634/212 113/635/212 109/636/212
f 109/637/213 113/638/213 110/639/213
f 110/640/214 113/641/214 111/642/214
f 111/643/215 113/644/215 112/645/215
f 112/646/216 113/647/216 105/648/216
f 1/649/217 2/650/217 3/651/217
f 1/652/218 3/653/218 4/654/218
f 1/655/219 4/656/219 5/657/219
f 1/658/220 5/659/220 6/660/220
f 1/661/221 6/662/221 7/663/221
f 1/664/222 7/665/222 8/666/222
